M48
;Layer_Color=9474304
;FILE_FORMAT=4:4
METRIC,LZ
;TYPE=PLATED
T1F00S00C0.7112
T2F00S00C0.9000
T3F00S00C1.5000
T4F00S00C3.0000
%
T01
X0037084Y0007635
X004765Y0004475
X00315Y001725
X00255
X00195Y00152586
X00170625Y002225
X0017Y0026
X001125Y00245
X00095Y00235
Y00215
X001016Y0036068
X001325Y004275
Y0046
X002325Y004025
X0025908Y0035814
X002975Y00385
X00305Y004725
X001975Y003525
X00375Y00385
X0045Y0037
X004375Y002875
X0049358Y0024892
X0056Y00245
X00555Y0027
X005375Y003025
Y003325
Y00385
Y00435
X0054864Y001651
X005975Y0017
Y001125
X006425Y002075
X0038Y002
T02
X003708Y000254
X003962
X004216
X00447
X00498
X005234
X005488
X005742
X005996
X00625
X003454
X0032
X002946
X002692
X005975Y003238
Y003492
Y003746
Y004
Y004254
X005996Y00505
X005742
X005488
X005234
X00498
X004726
X004472
X004091
X003837
X003583
X00625
X003329
X003075
X002821
X002567
X002313
X002059
X001805
T03
X00155Y0004
X00205
X00045Y001825
Y002325
Y002825
T04
X00655Y0007
Y0035
X0015Y00505
M30
