G04*
G04 #@! TF.GenerationSoftware,Altium Limited,Altium Designer,18.0.7 (293)*
G04*
G04 Layer_Color=8388736*
%FSLAX25Y25*%
%MOIN*%
G70*
G01*
G75*
%ADD22R,0.05131X0.13792*%
%ADD23R,0.11036X0.05131*%
%ADD24R,0.05131X0.11036*%
%ADD25R,0.16548X0.12217*%
%ADD26R,0.38595X0.24422*%
G04:AMPARAMS|DCode=27|XSize=86.35mil|YSize=32.8mil|CornerRadius=5.98mil|HoleSize=0mil|Usage=FLASHONLY|Rotation=90.000|XOffset=0mil|YOffset=0mil|HoleType=Round|Shape=RoundedRectangle|*
%AMROUNDEDRECTD27*
21,1,0.08635,0.02084,0,0,90.0*
21,1,0.07438,0.03280,0,0,90.0*
1,1,0.01197,0.01042,0.03719*
1,1,0.01197,0.01042,-0.03719*
1,1,0.01197,-0.01042,-0.03719*
1,1,0.01197,-0.01042,0.03719*
%
%ADD27ROUNDEDRECTD27*%
%ADD28R,0.06299X0.01968*%
%ADD29R,0.06706X0.11036*%
%ADD30R,0.16548X0.08674*%
%ADD31R,0.05131X0.07493*%
%ADD32R,0.03556X0.04737*%
%ADD33C,0.16548*%
%ADD34C,0.06706*%
%ADD35R,0.06706X0.06706*%
%ADD36R,0.06706X0.06706*%
%ADD37C,0.13398*%
%ADD38C,0.05800*%
D22*
X65354Y128937D02*
D03*
X42913D02*
D03*
X65354Y58071D02*
D03*
X42913D02*
D03*
D23*
X131890Y161811D02*
D03*
Y151181D02*
D03*
X43307Y41732D02*
D03*
Y31102D02*
D03*
D24*
X82087Y160433D02*
D03*
X71457D02*
D03*
X82087Y174213D02*
D03*
X71457D02*
D03*
X194488Y130905D02*
D03*
X205118D02*
D03*
X194488Y151575D02*
D03*
X205118D02*
D03*
X194488Y171260D02*
D03*
X205118D02*
D03*
D25*
X139882Y105866D02*
D03*
X89685D02*
D03*
D26*
X114783D02*
D03*
D27*
X92283Y131890D02*
D03*
X97283D02*
D03*
X102283D02*
D03*
X107283D02*
D03*
X112283D02*
D03*
X117283D02*
D03*
X122283D02*
D03*
X127283D02*
D03*
X132283D02*
D03*
X137283D02*
D03*
Y79843D02*
D03*
X132283D02*
D03*
X127283D02*
D03*
X122283D02*
D03*
X117283D02*
D03*
X112283D02*
D03*
X107283D02*
D03*
X102283D02*
D03*
X97283D02*
D03*
X92283D02*
D03*
D28*
X66535Y109350D02*
D03*
Y111909D02*
D03*
X43701Y109350D02*
D03*
Y111909D02*
D03*
X66535Y114469D02*
D03*
Y117028D02*
D03*
X43701Y114469D02*
D03*
Y117028D02*
D03*
X66535Y69980D02*
D03*
Y72539D02*
D03*
X43701Y69980D02*
D03*
Y72539D02*
D03*
X66535Y75098D02*
D03*
Y77658D02*
D03*
X43701Y75098D02*
D03*
Y77658D02*
D03*
D29*
X13780Y41339D02*
D03*
X25591D02*
D03*
D30*
X181102Y53150D02*
D03*
X162205D02*
D03*
D31*
X61417Y94488D02*
D03*
X50787D02*
D03*
X169748Y87662D02*
D03*
X159118D02*
D03*
X163779Y131890D02*
D03*
X153150D02*
D03*
X163779Y121063D02*
D03*
X153150D02*
D03*
X189370Y77756D02*
D03*
X178740D02*
D03*
D32*
X168370Y100457D02*
D03*
X160496D02*
D03*
X164433Y108331D02*
D03*
D33*
X80709Y15748D02*
D03*
X61024D02*
D03*
X17717Y111221D02*
D03*
Y91535D02*
D03*
Y71850D02*
D03*
D34*
X235236Y127480D02*
D03*
Y137480D02*
D03*
Y147480D02*
D03*
Y157480D02*
D03*
X115984Y10000D02*
D03*
X125984D02*
D03*
X135984D02*
D03*
X145984D02*
D03*
X155984D02*
D03*
X165984D02*
D03*
X175984D02*
D03*
X206063D02*
D03*
X216063D02*
D03*
X226063D02*
D03*
X236063D02*
D03*
X246063D02*
D03*
X91063Y198819D02*
D03*
X161063D02*
D03*
X151063D02*
D03*
X141063D02*
D03*
X131063D02*
D03*
X121063D02*
D03*
X111063D02*
D03*
X101063D02*
D03*
X81063D02*
D03*
X186063D02*
D03*
X196063D02*
D03*
X206063D02*
D03*
X216063D02*
D03*
X226063D02*
D03*
X236063D02*
D03*
X246063D02*
D03*
D35*
X235236Y167480D02*
D03*
D36*
X105984Y10000D02*
D03*
X196063D02*
D03*
X71063Y198819D02*
D03*
X176063D02*
D03*
D37*
X257874Y137795D02*
D03*
Y27559D02*
D03*
X59055Y198819D02*
D03*
D38*
X102000Y141000D02*
D03*
X66929Y102362D02*
D03*
X191929Y100394D02*
D03*
X44291Y96457D02*
D03*
X149606Y78740D02*
D03*
X169187Y24403D02*
D03*
X193898Y66929D02*
D03*
X91535Y158465D02*
D03*
X77756Y138779D02*
D03*
X37402Y92520D02*
D03*
X177165Y145669D02*
D03*
X67175Y87598D02*
D03*
X76772Y60073D02*
D03*
X55000Y142000D02*
D03*
X52165Y168307D02*
D03*
Y181102D02*
D03*
X172244Y113189D02*
D03*
X117126Y151575D02*
D03*
X235236Y66929D02*
D03*
X220472Y96457D02*
D03*
X120079Y186024D02*
D03*
X235236Y44291D02*
D03*
X218504Y106299D02*
D03*
X252953Y81693D02*
D03*
X211614Y119095D02*
D03*
X124016Y67913D02*
D03*
X100394D02*
D03*
X37402Y84646D02*
D03*
X147638Y151575D02*
D03*
X211614Y130905D02*
D03*
Y151575D02*
D03*
Y171260D02*
D03*
M02*
