G04*
G04 #@! TF.GenerationSoftware,Altium Limited,Altium Designer,18.0.7 (293)*
G04*
G04 Layer_Physical_Order=1*
G04 Layer_Color=255*
%FSLAX25Y25*%
%MOIN*%
G70*
G01*
G75*
%ADD10C,0.00787*%
%ADD11C,0.01000*%
%ADD13R,0.04331X0.12992*%
%ADD14R,0.10236X0.04331*%
%ADD15R,0.04331X0.10236*%
G04:AMPARAMS|DCode=16|XSize=78.35mil|YSize=24.8mil|CornerRadius=1.98mil|HoleSize=0mil|Usage=FLASHONLY|Rotation=90.000|XOffset=0mil|YOffset=0mil|HoleType=Round|Shape=RoundedRectangle|*
%AMROUNDEDRECTD16*
21,1,0.07835,0.02084,0,0,90.0*
21,1,0.07438,0.02480,0,0,90.0*
1,1,0.00397,0.01042,0.03719*
1,1,0.00397,0.01042,-0.03719*
1,1,0.00397,-0.01042,-0.03719*
1,1,0.00397,-0.01042,0.03719*
%
%ADD16ROUNDEDRECTD16*%
%ADD17R,0.05906X0.01575*%
%ADD18R,0.05906X0.10236*%
%ADD19R,0.15748X0.07874*%
%ADD20R,0.04331X0.06693*%
%ADD21R,0.02756X0.03937*%
%ADD39R,0.15748X0.11417*%
%ADD40R,0.37795X0.23622*%
%ADD41C,0.01181*%
%ADD42C,0.03937*%
%ADD43C,0.01575*%
%ADD44C,0.00000*%
%ADD45C,0.01968*%
%ADD46C,0.15748*%
%ADD47C,0.05906*%
%ADD48R,0.05906X0.05906*%
%ADD49R,0.05906X0.05906*%
%ADD50C,0.12598*%
%ADD51C,0.05000*%
G36*
X252210Y201029D02*
Y155753D01*
X263179Y144784D01*
X262843Y144413D01*
X262490Y144703D01*
X261053Y145471D01*
X259495Y145943D01*
X257874Y146103D01*
X256253Y145943D01*
X254695Y145471D01*
X253258Y144703D01*
X252000Y143670D01*
X250966Y142411D01*
X250199Y140975D01*
X249726Y139416D01*
X249566Y137795D01*
X249726Y136175D01*
X250199Y134616D01*
X250966Y133180D01*
X252000Y131921D01*
X253258Y130888D01*
X254695Y130120D01*
X256253Y129647D01*
X257874Y129488D01*
X259495Y129647D01*
X261053Y130120D01*
X262490Y130888D01*
X263521Y131734D01*
X264021Y131498D01*
Y33857D01*
X263521Y33620D01*
X262490Y34467D01*
X261053Y35234D01*
X259495Y35707D01*
X257874Y35867D01*
X256253Y35707D01*
X254695Y35234D01*
X253258Y34467D01*
X252000Y33434D01*
X250966Y32175D01*
X250199Y30738D01*
X249726Y29180D01*
X249566Y27559D01*
X249726Y25938D01*
X250199Y24380D01*
X250966Y22944D01*
X252000Y21685D01*
X253258Y20652D01*
X254695Y19884D01*
X256253Y19411D01*
X257874Y19251D01*
X259495Y19411D01*
X261053Y19884D01*
X262490Y20652D01*
X263521Y21498D01*
X264021Y21261D01*
Y19926D01*
X248273Y4178D01*
X247289Y3194D01*
X8115D01*
X5789Y5520D01*
Y200671D01*
X9843Y204724D01*
X52595Y204768D01*
X52831Y204268D01*
X52148Y203434D01*
X51380Y201998D01*
X50907Y200440D01*
X50747Y198819D01*
X50907Y197198D01*
X51380Y195640D01*
X52148Y194203D01*
X53181Y192945D01*
X54440Y191911D01*
X55876Y191144D01*
X57434Y190671D01*
X59055Y190511D01*
X60676Y190671D01*
X62234Y191144D01*
X63671Y191911D01*
X64929Y192945D01*
X65664Y193840D01*
X66142Y193898D01*
Y193898D01*
X66142Y193898D01*
X75984D01*
Y196914D01*
X76484Y197013D01*
X76764Y196337D01*
X77553Y195309D01*
X78581Y194520D01*
X79778Y194024D01*
X81063Y193855D01*
X82348Y194024D01*
X83545Y194520D01*
X84573Y195309D01*
X85362Y196337D01*
X85806Y197411D01*
X85807Y197411D01*
X86319D01*
X86320Y197411D01*
X86764Y196337D01*
X87553Y195309D01*
X88581Y194520D01*
X89778Y194024D01*
X91063Y193855D01*
X92348Y194024D01*
X93545Y194520D01*
X94573Y195309D01*
X95362Y196337D01*
X95858Y197534D01*
X96027Y198819D01*
X95858Y200104D01*
X95362Y201301D01*
X94573Y202329D01*
X93545Y203118D01*
X92348Y203613D01*
X91063Y203783D01*
X89778Y203613D01*
X88581Y203118D01*
X87553Y202329D01*
X86764Y201301D01*
X86320Y200227D01*
X86319Y200227D01*
X85807D01*
X85806Y200227D01*
X85362Y201301D01*
X84573Y202329D01*
X83545Y203118D01*
X82348Y203613D01*
X81063Y203783D01*
X79778Y203613D01*
X78581Y203118D01*
X77553Y202329D01*
X76764Y201301D01*
X76484Y200625D01*
X75984Y200724D01*
Y203740D01*
X66142D01*
X66142Y203740D01*
Y203740D01*
X65651Y203814D01*
X65268Y204280D01*
X65505Y204781D01*
X248273Y204966D01*
X252210Y201029D01*
D02*
G37*
%LPC*%
G36*
X246063Y203783D02*
X244778Y203613D01*
X243581Y203118D01*
X242553Y202329D01*
X241764Y201301D01*
X241320Y200227D01*
X241319Y200227D01*
X240807D01*
X240806Y200227D01*
X240362Y201301D01*
X239573Y202329D01*
X238545Y203118D01*
X237348Y203613D01*
X236063Y203783D01*
X234778Y203613D01*
X233581Y203118D01*
X232553Y202329D01*
X231764Y201301D01*
X231320Y200227D01*
X231319Y200227D01*
X230807D01*
X230806Y200227D01*
X230362Y201301D01*
X229573Y202329D01*
X228545Y203118D01*
X227348Y203613D01*
X226063Y203783D01*
X224778Y203613D01*
X223581Y203118D01*
X222553Y202329D01*
X221764Y201301D01*
X221320Y200227D01*
X221319Y200227D01*
X220807D01*
X220806Y200227D01*
X220362Y201301D01*
X219573Y202329D01*
X218545Y203118D01*
X217348Y203613D01*
X216063Y203783D01*
X214778Y203613D01*
X213581Y203118D01*
X212553Y202329D01*
X211764Y201301D01*
X211320Y200227D01*
X211319Y200227D01*
X210807D01*
X210806Y200227D01*
X210362Y201301D01*
X209573Y202329D01*
X208545Y203118D01*
X207348Y203613D01*
X206063Y203783D01*
X204778Y203613D01*
X203581Y203118D01*
X202553Y202329D01*
X201764Y201301D01*
X201320Y200227D01*
X201319Y200227D01*
X200807D01*
X200806Y200227D01*
X200362Y201301D01*
X199573Y202329D01*
X198545Y203118D01*
X197348Y203613D01*
X196063Y203783D01*
X194778Y203613D01*
X193581Y203118D01*
X192553Y202329D01*
X191764Y201301D01*
X191320Y200227D01*
X191319Y200227D01*
X190807D01*
X190806Y200227D01*
X190362Y201301D01*
X189573Y202329D01*
X188545Y203118D01*
X187348Y203613D01*
X186063Y203783D01*
X184778Y203613D01*
X183581Y203118D01*
X182553Y202329D01*
X181764Y201301D01*
X181484Y200625D01*
X180984Y200724D01*
Y203740D01*
X171142D01*
Y193898D01*
X180984D01*
Y196914D01*
X181484Y197013D01*
X181764Y196337D01*
X182553Y195309D01*
X182949Y195005D01*
X182982Y194506D01*
X174213Y185737D01*
X172101Y187849D01*
X171566Y188259D01*
X170944Y188517D01*
X170276Y188605D01*
X125122D01*
X124953Y189105D01*
X125152Y189258D01*
X129902Y194008D01*
X131063Y193855D01*
X132348Y194024D01*
X133545Y194520D01*
X134573Y195309D01*
X135362Y196337D01*
X135806Y197411D01*
X135807Y197411D01*
X136319D01*
X136320Y197411D01*
X136764Y196337D01*
X137553Y195309D01*
X138581Y194520D01*
X139778Y194024D01*
X141063Y193855D01*
X142348Y194024D01*
X143545Y194520D01*
X144573Y195309D01*
X145362Y196337D01*
X145806Y197411D01*
X145807Y197411D01*
X146319D01*
X146320Y197411D01*
X146764Y196337D01*
X147553Y195309D01*
X148581Y194520D01*
X149778Y194024D01*
X151063Y193855D01*
X152348Y194024D01*
X153545Y194520D01*
X154573Y195309D01*
X155362Y196337D01*
X155806Y197411D01*
X155807Y197411D01*
X156319D01*
X156320Y197411D01*
X156764Y196337D01*
X157553Y195309D01*
X158581Y194520D01*
X159778Y194024D01*
X161063Y193855D01*
X162348Y194024D01*
X163545Y194520D01*
X164573Y195309D01*
X165362Y196337D01*
X165858Y197534D01*
X166027Y198819D01*
X165858Y200104D01*
X165362Y201301D01*
X164573Y202329D01*
X163545Y203118D01*
X162348Y203613D01*
X161063Y203783D01*
X159778Y203613D01*
X158581Y203118D01*
X157553Y202329D01*
X156764Y201301D01*
X156320Y200227D01*
X156319Y200227D01*
X155807D01*
X155806Y200227D01*
X155362Y201301D01*
X154573Y202329D01*
X153545Y203118D01*
X152348Y203613D01*
X151063Y203783D01*
X149778Y203613D01*
X148581Y203118D01*
X147553Y202329D01*
X146764Y201301D01*
X146320Y200227D01*
X146319Y200227D01*
X145807D01*
X145806Y200227D01*
X145362Y201301D01*
X144573Y202329D01*
X143545Y203118D01*
X142348Y203613D01*
X141063Y203783D01*
X139778Y203613D01*
X138581Y203118D01*
X137553Y202329D01*
X136764Y201301D01*
X136320Y200227D01*
X136319Y200227D01*
X135807D01*
X135806Y200227D01*
X135362Y201301D01*
X134573Y202329D01*
X133545Y203118D01*
X132348Y203613D01*
X131063Y203783D01*
X129778Y203613D01*
X128581Y203118D01*
X127553Y202329D01*
X126764Y201301D01*
X126320Y200227D01*
X126319Y200227D01*
X125807D01*
X125806Y200227D01*
X125362Y201301D01*
X124573Y202329D01*
X123545Y203118D01*
X122348Y203613D01*
X121063Y203783D01*
X119778Y203613D01*
X118581Y203118D01*
X117553Y202329D01*
X116764Y201301D01*
X116320Y200227D01*
X116319Y200227D01*
X115807D01*
X115806Y200227D01*
X115362Y201301D01*
X114573Y202329D01*
X113545Y203118D01*
X112348Y203613D01*
X111063Y203783D01*
X109778Y203613D01*
X108581Y203118D01*
X107553Y202329D01*
X106764Y201301D01*
X106268Y200104D01*
X106099Y198819D01*
X106268Y197534D01*
X106764Y196337D01*
X107319Y195615D01*
X106895Y195191D01*
X106485Y194657D01*
X106227Y194034D01*
X106139Y193366D01*
Y181319D01*
X106227Y180651D01*
X106485Y180028D01*
X106895Y179494D01*
X114986Y171403D01*
X115521Y170993D01*
X116143Y170735D01*
X116811Y170647D01*
X162267D01*
X181080Y151833D01*
Y148729D01*
X180580Y148559D01*
X180352Y148856D01*
X179419Y149573D01*
X178332Y150023D01*
X177165Y150176D01*
X176408Y150077D01*
X157337Y169148D01*
X156802Y169558D01*
X156180Y169816D01*
X155512Y169904D01*
X86221D01*
Y181299D01*
X77953D01*
Y167126D01*
Y153347D01*
X86221D01*
Y164742D01*
X125984D01*
Y162205D01*
X137795D01*
Y164742D01*
X154443D01*
X172758Y146426D01*
X172658Y145669D01*
X172812Y144503D01*
X173262Y143416D01*
X173978Y142482D01*
X174912Y141766D01*
X175999Y141316D01*
X177165Y141162D01*
X178332Y141316D01*
X179419Y141766D01*
X180352Y142482D01*
X180580Y142779D01*
X181080Y142610D01*
Y134244D01*
X180618Y134053D01*
X169147Y145524D01*
X168324Y146156D01*
X167366Y146552D01*
X166339Y146687D01*
X148580D01*
X148548Y147187D01*
X148804Y147221D01*
X149891Y147672D01*
X150825Y148388D01*
X151541Y149321D01*
X151991Y150408D01*
X152145Y151575D01*
X151991Y152741D01*
X151541Y153828D01*
X150825Y154762D01*
X149891Y155478D01*
X148804Y155928D01*
X147638Y156082D01*
X146471Y155928D01*
X145384Y155478D01*
X144451Y154762D01*
X143986Y154156D01*
X138976D01*
Y155315D01*
X124803D01*
Y149143D01*
X124303Y148973D01*
X124109Y149227D01*
X121614Y151722D01*
X121479Y152741D01*
X121029Y153828D01*
X120313Y154762D01*
X119379Y155478D01*
X118292Y155928D01*
X117126Y156082D01*
X115960Y155928D01*
X114873Y155478D01*
X113939Y154762D01*
X113223Y153828D01*
X112773Y152741D01*
X112619Y151575D01*
X112773Y150408D01*
X113223Y149321D01*
X113939Y148388D01*
X114873Y147672D01*
X115960Y147221D01*
X117126Y147068D01*
X118292Y147221D01*
X118661Y147374D01*
X119702Y146332D01*
Y142472D01*
X119240Y142281D01*
X110091Y151430D01*
X109269Y152061D01*
X108311Y152458D01*
X107283Y152593D01*
X41339D01*
X40311Y152458D01*
X39353Y152061D01*
X38531Y151430D01*
X14909Y127808D01*
X14278Y126986D01*
X13881Y126028D01*
X13746Y125000D01*
Y120258D01*
X12222Y119444D01*
X10723Y118214D01*
X9493Y116715D01*
X8579Y115005D01*
X8016Y113150D01*
X7826Y111221D01*
X8016Y109291D01*
X8579Y107436D01*
X9493Y105726D01*
X10723Y104227D01*
X12222Y102997D01*
X13932Y102083D01*
X15395Y101639D01*
Y101117D01*
X13932Y100673D01*
X12222Y99759D01*
X10723Y98529D01*
X9493Y97030D01*
X8579Y95320D01*
X8016Y93465D01*
X7826Y91535D01*
X8016Y89606D01*
X8579Y87751D01*
X9493Y86041D01*
X10723Y84542D01*
X12222Y83312D01*
X13932Y82398D01*
X15395Y81954D01*
Y81432D01*
X13932Y80988D01*
X12222Y80074D01*
X10723Y78844D01*
X9493Y77345D01*
X8579Y75635D01*
X8016Y73780D01*
X7826Y71850D01*
X8016Y69921D01*
X8579Y68066D01*
X9493Y66356D01*
X10723Y64857D01*
X12222Y63627D01*
X13932Y62713D01*
X15787Y62150D01*
X17717Y61960D01*
X19646Y62150D01*
X21299Y62652D01*
X28688Y55263D01*
X29511Y54632D01*
X30468Y54235D01*
X31496Y54100D01*
X38780D01*
Y49606D01*
X47047D01*
Y56647D01*
X50197D01*
X51118Y56830D01*
X51900Y57352D01*
X53826Y59278D01*
X54022Y59344D01*
X54246D01*
X54441Y59278D01*
X57352Y56368D01*
X58133Y55846D01*
X59055Y55662D01*
X61221D01*
Y49606D01*
X69488D01*
Y51211D01*
X69950Y51403D01*
X70525Y50828D01*
X71347Y50197D01*
X72305Y49801D01*
X72769Y49739D01*
X72948Y49211D01*
X53062Y29326D01*
X50394Y31994D01*
Y35236D01*
X36220D01*
Y26969D01*
X44187D01*
X49174Y21982D01*
Y8858D01*
X49327Y8090D01*
X49762Y7439D01*
X51730Y5471D01*
X52381Y5035D01*
X53150Y4883D01*
X54134D01*
X69882Y4883D01*
X70650Y5035D01*
X71301Y5471D01*
X72285Y6455D01*
X72720Y7106D01*
X72873Y7874D01*
Y15265D01*
X72854Y15362D01*
X72864Y15461D01*
X72835Y15748D01*
X72864Y16035D01*
X72854Y16134D01*
X72873Y16231D01*
Y27712D01*
X85477Y40316D01*
X170276D01*
X170631Y40386D01*
X170988Y40446D01*
X171014Y40463D01*
X171044Y40468D01*
X171345Y40670D01*
X171652Y40862D01*
X171669Y40887D01*
X171695Y40904D01*
X171896Y41205D01*
X172106Y41500D01*
X172113Y41529D01*
X172130Y41555D01*
X172201Y41910D01*
X172282Y42263D01*
X172467Y48425D01*
X180709D01*
Y53150D01*
Y57874D01*
X173109D01*
X172761Y58233D01*
X172842Y60927D01*
X181489Y69574D01*
X182120Y70396D01*
X182517Y71354D01*
X182652Y72382D01*
Y72441D01*
X182874D01*
Y83071D01*
X182652D01*
Y106351D01*
X183114Y106543D01*
X187728Y101929D01*
X187576Y101560D01*
X187422Y100394D01*
X187576Y99227D01*
X188026Y98140D01*
X188742Y97207D01*
X189676Y96491D01*
X190763Y96040D01*
X191929Y95887D01*
X193096Y96040D01*
X194183Y96491D01*
X195116Y97207D01*
X195832Y98140D01*
X196283Y99227D01*
X196436Y100394D01*
X196283Y101560D01*
X195832Y102647D01*
X195116Y103581D01*
X194183Y104297D01*
X193096Y104747D01*
X192076Y104881D01*
X186243Y110715D01*
Y112603D01*
X186705Y112795D01*
X214939Y84561D01*
Y75787D01*
X215026Y75119D01*
X215284Y74497D01*
X215695Y73962D01*
X224553Y65104D01*
X225087Y64694D01*
X225710Y64436D01*
X226378Y64348D01*
X231584D01*
X232049Y63742D01*
X232983Y63026D01*
X234070Y62576D01*
X235236Y62422D01*
X236403Y62576D01*
X237490Y63026D01*
X238423Y63742D01*
X239139Y64676D01*
X239590Y65763D01*
X239743Y66929D01*
X239590Y68096D01*
X239139Y69183D01*
X238423Y70116D01*
X237490Y70832D01*
X236403Y71283D01*
X235236Y71436D01*
X234070Y71283D01*
X232983Y70832D01*
X232049Y70116D01*
X231584Y69510D01*
X227447D01*
X220101Y76856D01*
Y85630D01*
X220013Y86298D01*
X219755Y86920D01*
X219345Y87455D01*
X189392Y117408D01*
Y119296D01*
X189854Y119488D01*
X214710Y94632D01*
X215245Y94221D01*
X215867Y93963D01*
X216535Y93876D01*
X216821D01*
X217285Y93270D01*
X218219Y92554D01*
X219306Y92103D01*
X220472Y91950D01*
X221639Y92103D01*
X222726Y92554D01*
X223659Y93270D01*
X224376Y94203D01*
X224826Y95290D01*
X224979Y96457D01*
X224826Y97623D01*
X224376Y98710D01*
X223659Y99644D01*
X222726Y100360D01*
X221639Y100810D01*
X220472Y100964D01*
X219306Y100810D01*
X218219Y100360D01*
X217285Y99644D01*
X217016Y99626D01*
X200591Y116051D01*
X200782Y116513D01*
X207962D01*
X208427Y115908D01*
X209361Y115191D01*
X210448Y114741D01*
X211614Y114587D01*
X212781Y114741D01*
X213868Y115191D01*
X214801Y115908D01*
X215423Y116718D01*
X215923Y116569D01*
Y109951D01*
X215317Y109486D01*
X214601Y108553D01*
X214151Y107466D01*
X213997Y106299D01*
X214151Y105133D01*
X214601Y104046D01*
X215317Y103112D01*
X216250Y102396D01*
X217337Y101946D01*
X218504Y101792D01*
X219670Y101946D01*
X220758Y102396D01*
X221691Y103112D01*
X222407Y104046D01*
X222857Y105133D01*
X223011Y106299D01*
X222857Y107466D01*
X222407Y108553D01*
X221691Y109486D01*
X221085Y109951D01*
Y115163D01*
X221547Y115354D01*
X244466Y92435D01*
Y77756D01*
X244554Y77088D01*
X244812Y76465D01*
X245222Y75931D01*
X251356Y69797D01*
Y62093D01*
X237467Y48204D01*
X236403Y48645D01*
X235236Y48798D01*
X234070Y48645D01*
X232983Y48195D01*
X232049Y47478D01*
X231333Y46545D01*
X230883Y45458D01*
X230729Y44291D01*
X230883Y43125D01*
X231333Y42038D01*
X232049Y41104D01*
X232983Y40388D01*
X234070Y39938D01*
X235236Y39784D01*
X236403Y39938D01*
X237490Y40388D01*
X238423Y41104D01*
X239139Y42038D01*
X239520Y42956D01*
X255762Y59198D01*
X255777Y59218D01*
X256277Y59048D01*
Y48313D01*
X243025Y35061D01*
X158465D01*
X157797Y34973D01*
X157174Y34716D01*
X156639Y34305D01*
X144159Y21825D01*
X143749Y21291D01*
X143491Y20668D01*
X143403Y20000D01*
Y14222D01*
X142474Y13510D01*
X141685Y12482D01*
X141241Y11408D01*
X141240Y11408D01*
X140728D01*
X140728Y11408D01*
X140283Y12482D01*
X139494Y13510D01*
X138466Y14299D01*
X137269Y14795D01*
X135984Y14964D01*
X134699Y14795D01*
X133502Y14299D01*
X132474Y13510D01*
X131685Y12482D01*
X131241Y11408D01*
X131240Y11408D01*
X130728D01*
X130728Y11408D01*
X130283Y12482D01*
X129494Y13510D01*
X128466Y14299D01*
X127269Y14795D01*
X125984Y14964D01*
X124699Y14795D01*
X123502Y14299D01*
X122474Y13510D01*
X121686Y12482D01*
X121241Y11408D01*
X121240Y11408D01*
X120728D01*
X120728Y11408D01*
X120283Y12482D01*
X119494Y13510D01*
X118466Y14299D01*
X117269Y14795D01*
X115984Y14964D01*
X114699Y14795D01*
X113502Y14299D01*
X112474Y13510D01*
X111686Y12482D01*
X111406Y11806D01*
X110906Y11905D01*
Y14921D01*
X101063D01*
Y5079D01*
X110906D01*
Y8095D01*
X111406Y8194D01*
X111686Y7518D01*
X112474Y6490D01*
X113502Y5701D01*
X114699Y5205D01*
X115984Y5036D01*
X117269Y5205D01*
X118466Y5701D01*
X119494Y6490D01*
X120283Y7518D01*
X120728Y8592D01*
X120728Y8592D01*
X121240D01*
X121241Y8592D01*
X121686Y7518D01*
X122474Y6490D01*
X123502Y5701D01*
X124699Y5205D01*
X125984Y5036D01*
X127269Y5205D01*
X128466Y5701D01*
X129494Y6490D01*
X130283Y7518D01*
X130728Y8592D01*
X130728Y8592D01*
X131240D01*
X131241Y8592D01*
X131685Y7518D01*
X132474Y6490D01*
X133502Y5701D01*
X134699Y5205D01*
X135984Y5036D01*
X137269Y5205D01*
X138466Y5701D01*
X139494Y6490D01*
X140283Y7518D01*
X140728Y8592D01*
X140728Y8592D01*
X141240D01*
X141241Y8592D01*
X141685Y7518D01*
X142474Y6490D01*
X143502Y5701D01*
X144700Y5205D01*
X145984Y5036D01*
X147269Y5205D01*
X148466Y5701D01*
X149494Y6490D01*
X150283Y7518D01*
X150779Y8715D01*
X150948Y10000D01*
X150779Y11285D01*
X150283Y12482D01*
X149494Y13510D01*
X148565Y14222D01*
Y18931D01*
X159534Y29899D01*
X244094D01*
X244762Y29987D01*
X245385Y30245D01*
X245920Y30655D01*
X260683Y45419D01*
X261094Y45954D01*
X261351Y46576D01*
X261439Y47244D01*
Y103858D01*
X261351Y104526D01*
X261094Y105149D01*
X260683Y105683D01*
X240047Y126320D01*
X240200Y127480D01*
X240031Y128765D01*
X239535Y129962D01*
X238746Y130990D01*
X237718Y131779D01*
X236521Y132275D01*
X235236Y132444D01*
X233951Y132275D01*
X232754Y131779D01*
X231726Y130990D01*
X230937Y129962D01*
X230442Y128765D01*
X230387Y128355D01*
X230302Y128148D01*
X230214Y127480D01*
X230302Y126812D01*
X230387Y126606D01*
X230442Y126196D01*
X230937Y124998D01*
X231726Y123970D01*
X232754Y123181D01*
X233951Y122686D01*
X235236Y122517D01*
X236397Y122669D01*
X256277Y102789D01*
Y85687D01*
X255777Y85419D01*
X255534Y85581D01*
Y96457D01*
X255446Y97125D01*
X255188Y97747D01*
X254778Y98282D01*
X228644Y124416D01*
Y194596D01*
X229573Y195309D01*
X230362Y196337D01*
X230806Y197411D01*
X230807Y197411D01*
X231319D01*
X231320Y197411D01*
X231764Y196337D01*
X232553Y195309D01*
X233581Y194520D01*
X234778Y194024D01*
X236063Y193855D01*
X237348Y194024D01*
X238545Y194520D01*
X239573Y195309D01*
X240362Y196337D01*
X240806Y197411D01*
X240807Y197411D01*
X241319D01*
X241320Y197411D01*
X241764Y196337D01*
X242553Y195309D01*
X243581Y194520D01*
X244778Y194024D01*
X246063Y193855D01*
X247348Y194024D01*
X248545Y194520D01*
X249573Y195309D01*
X250362Y196337D01*
X250858Y197534D01*
X251027Y198819D01*
X250858Y200104D01*
X250362Y201301D01*
X249573Y202329D01*
X248545Y203118D01*
X247348Y203613D01*
X246063Y203783D01*
D02*
G37*
G36*
X52165Y185609D02*
X50999Y185456D01*
X49912Y185006D01*
X48978Y184289D01*
X48262Y183356D01*
X47812Y182269D01*
X47658Y181102D01*
X47812Y179936D01*
X48262Y178849D01*
X48978Y177915D01*
X49912Y177199D01*
X50999Y176749D01*
X52019Y176615D01*
X56246Y172387D01*
X56780Y171977D01*
X57403Y171719D01*
X58071Y171631D01*
X67323D01*
Y167126D01*
Y163014D01*
X60124D01*
X56366Y166772D01*
X56519Y167141D01*
X56672Y168307D01*
X56519Y169474D01*
X56069Y170561D01*
X55352Y171494D01*
X54419Y172210D01*
X53332Y172661D01*
X52165Y172814D01*
X50999Y172661D01*
X49912Y172210D01*
X48978Y171494D01*
X48262Y170561D01*
X47812Y169474D01*
X47658Y168307D01*
X47812Y167141D01*
X48262Y166054D01*
X48978Y165120D01*
X49912Y164404D01*
X50999Y163954D01*
X52019Y163819D01*
X57230Y158608D01*
X57765Y158198D01*
X58387Y157940D01*
X59055Y157852D01*
X67323D01*
Y153347D01*
X75590D01*
Y167126D01*
Y181299D01*
X67323D01*
Y176794D01*
X59140D01*
X56366Y179568D01*
X56519Y179936D01*
X56672Y181102D01*
X56519Y182269D01*
X56069Y183356D01*
X55352Y184289D01*
X54419Y185006D01*
X53332Y185456D01*
X52165Y185609D01*
D02*
G37*
G36*
X92035Y161929D02*
Y158965D01*
X95000D01*
X94945Y159378D01*
X94593Y160230D01*
X94032Y160961D01*
X93300Y161522D01*
X92449Y161874D01*
X92035Y161929D01*
D02*
G37*
G36*
X91035D02*
X90622Y161874D01*
X89770Y161522D01*
X89039Y160961D01*
X88478Y160230D01*
X88125Y159378D01*
X88071Y158965D01*
X91035D01*
Y161929D01*
D02*
G37*
G36*
X137795Y161417D02*
X132283D01*
Y158858D01*
X137795D01*
Y161417D01*
D02*
G37*
G36*
X131496D02*
X125984D01*
Y158858D01*
X131496D01*
Y161417D01*
D02*
G37*
G36*
X95000Y157965D02*
X92035D01*
Y155000D01*
X92449Y155055D01*
X93300Y155407D01*
X94032Y155968D01*
X94593Y156700D01*
X94945Y157551D01*
X95000Y157965D01*
D02*
G37*
G36*
X91035D02*
X88071D01*
X88125Y157551D01*
X88478Y156700D01*
X89039Y155968D01*
X89770Y155407D01*
X90622Y155055D01*
X91035Y155000D01*
Y157965D01*
D02*
G37*
G36*
X240157Y172401D02*
X230315D01*
Y162559D01*
X233331D01*
X233430Y162059D01*
X232754Y161779D01*
X231726Y160990D01*
X230937Y159962D01*
X230442Y158765D01*
X230272Y157480D01*
X230442Y156196D01*
X230937Y154998D01*
X231726Y153970D01*
X232754Y153182D01*
X233828Y152737D01*
X233828Y152736D01*
Y152224D01*
X233828Y152224D01*
X232754Y151779D01*
X231726Y150990D01*
X230937Y149962D01*
X230442Y148765D01*
X230272Y147480D01*
X230442Y146196D01*
X230937Y144998D01*
X231726Y143970D01*
X232754Y143182D01*
X233951Y142686D01*
X235236Y142517D01*
X236521Y142686D01*
X237718Y143182D01*
X238746Y143970D01*
X239535Y144998D01*
X240031Y146196D01*
X240200Y147480D01*
X240031Y148765D01*
X239535Y149962D01*
X238746Y150990D01*
X237718Y151779D01*
X236645Y152224D01*
X236644Y152224D01*
Y152736D01*
X236645Y152737D01*
X237718Y153182D01*
X238746Y153970D01*
X239535Y154998D01*
X240031Y156196D01*
X240200Y157480D01*
X240031Y158765D01*
X239535Y159962D01*
X238746Y160990D01*
X237718Y161779D01*
X237042Y162059D01*
X237141Y162559D01*
X240157D01*
Y172401D01*
D02*
G37*
G36*
X192323Y81890D02*
X189764D01*
Y78150D01*
X192323D01*
Y81890D01*
D02*
G37*
G36*
X188976D02*
X186417D01*
Y78150D01*
X188976D01*
Y81890D01*
D02*
G37*
G36*
X192323Y77362D02*
X189764D01*
Y73622D01*
X192323D01*
Y77362D01*
D02*
G37*
G36*
X188976D02*
X186417D01*
Y73622D01*
X188976D01*
Y77362D01*
D02*
G37*
G36*
X194398Y70394D02*
Y67429D01*
X197362D01*
X197308Y67843D01*
X196955Y68694D01*
X196394Y69425D01*
X195663Y69986D01*
X194811Y70339D01*
X194398Y70394D01*
D02*
G37*
G36*
X193398D02*
X192984Y70339D01*
X192132Y69986D01*
X191401Y69425D01*
X190840Y68694D01*
X190488Y67843D01*
X190433Y67429D01*
X193398D01*
Y70394D01*
D02*
G37*
G36*
X197362Y66429D02*
X194398D01*
Y63465D01*
X194811Y63519D01*
X195663Y63872D01*
X196394Y64433D01*
X196955Y65164D01*
X197308Y66015D01*
X197362Y66429D01*
D02*
G37*
G36*
X193398D02*
X190433D01*
X190488Y66015D01*
X190840Y65164D01*
X191401Y64433D01*
X192132Y63872D01*
X192984Y63519D01*
X193398Y63465D01*
Y66429D01*
D02*
G37*
G36*
X189764Y57874D02*
X181496D01*
Y53543D01*
X189764D01*
Y57874D01*
D02*
G37*
G36*
Y52756D02*
X181496D01*
Y48425D01*
X189764D01*
Y52756D01*
D02*
G37*
G36*
X17520Y47244D02*
X14173D01*
Y41732D01*
X17520D01*
Y47244D01*
D02*
G37*
G36*
X13386D02*
X10039D01*
Y41732D01*
X13386D01*
Y47244D01*
D02*
G37*
G36*
X30512Y48425D02*
X20669D01*
Y34252D01*
X30512D01*
Y38758D01*
X36220D01*
Y37598D01*
X50394D01*
Y45866D01*
X36220D01*
Y43920D01*
X30512D01*
Y48425D01*
D02*
G37*
G36*
X17520Y40945D02*
X14173D01*
Y35433D01*
X17520D01*
Y40945D01*
D02*
G37*
G36*
X13386D02*
X10039D01*
Y35433D01*
X13386D01*
Y40945D01*
D02*
G37*
G36*
X169687Y27867D02*
Y24903D01*
X172651D01*
X172597Y25317D01*
X172244Y26168D01*
X171683Y26899D01*
X170952Y27460D01*
X170100Y27813D01*
X169687Y27867D01*
D02*
G37*
G36*
X168687D02*
X168273Y27813D01*
X167422Y27460D01*
X166691Y26899D01*
X166130Y26168D01*
X165777Y25317D01*
X165723Y24903D01*
X168687D01*
Y27867D01*
D02*
G37*
G36*
X172651Y23903D02*
X169687D01*
Y20938D01*
X170100Y20993D01*
X170952Y21346D01*
X171683Y21907D01*
X172244Y22638D01*
X172597Y23489D01*
X172651Y23903D01*
D02*
G37*
G36*
X168687D02*
X165723D01*
X165777Y23489D01*
X166130Y22638D01*
X166691Y21907D01*
X167422Y21346D01*
X168273Y20993D01*
X168687Y20938D01*
Y23903D01*
D02*
G37*
G36*
X246063Y14964D02*
X244778Y14795D01*
X243581Y14299D01*
X242553Y13510D01*
X241764Y12482D01*
X241320Y11408D01*
X241319Y11408D01*
X240807D01*
X240806Y11408D01*
X240362Y12482D01*
X239573Y13510D01*
X238545Y14299D01*
X237348Y14795D01*
X236063Y14964D01*
X234778Y14795D01*
X233581Y14299D01*
X232553Y13510D01*
X231764Y12482D01*
X231320Y11408D01*
X231319Y11408D01*
X230807D01*
X230806Y11408D01*
X230362Y12482D01*
X229573Y13510D01*
X228545Y14299D01*
X227348Y14795D01*
X226063Y14964D01*
X224778Y14795D01*
X223581Y14299D01*
X222553Y13510D01*
X221764Y12482D01*
X221320Y11408D01*
X221319Y11408D01*
X220807D01*
X220806Y11408D01*
X220362Y12482D01*
X219573Y13510D01*
X218545Y14299D01*
X217348Y14795D01*
X216063Y14964D01*
X214778Y14795D01*
X213581Y14299D01*
X212553Y13510D01*
X211764Y12482D01*
X211320Y11408D01*
X211319Y11408D01*
X210807D01*
X210806Y11408D01*
X210362Y12482D01*
X209573Y13510D01*
X208545Y14299D01*
X207348Y14795D01*
X206063Y14964D01*
X204778Y14795D01*
X203581Y14299D01*
X202553Y13510D01*
X201764Y12482D01*
X201484Y11806D01*
X200984Y11905D01*
Y14921D01*
X191142D01*
Y5079D01*
X200984D01*
Y8095D01*
X201484Y8194D01*
X201764Y7518D01*
X202553Y6490D01*
X203581Y5701D01*
X204778Y5205D01*
X206063Y5036D01*
X207348Y5205D01*
X208545Y5701D01*
X209573Y6490D01*
X210362Y7518D01*
X210806Y8592D01*
X210807Y8592D01*
X211319D01*
X211320Y8592D01*
X211764Y7518D01*
X212553Y6490D01*
X213581Y5701D01*
X214778Y5205D01*
X216063Y5036D01*
X217348Y5205D01*
X218545Y5701D01*
X219573Y6490D01*
X220362Y7518D01*
X220806Y8592D01*
X220807Y8592D01*
X221319D01*
X221320Y8592D01*
X221764Y7518D01*
X222553Y6490D01*
X223581Y5701D01*
X224778Y5205D01*
X226063Y5036D01*
X227348Y5205D01*
X228545Y5701D01*
X229573Y6490D01*
X230362Y7518D01*
X230806Y8592D01*
X230807Y8592D01*
X231319D01*
X231320Y8592D01*
X231764Y7518D01*
X232553Y6490D01*
X233581Y5701D01*
X234778Y5205D01*
X236063Y5036D01*
X237348Y5205D01*
X238545Y5701D01*
X239573Y6490D01*
X240362Y7518D01*
X240806Y8592D01*
X240807Y8592D01*
X241319D01*
X241320Y8592D01*
X241764Y7518D01*
X242553Y6490D01*
X243581Y5701D01*
X244778Y5205D01*
X246063Y5036D01*
X247348Y5205D01*
X248545Y5701D01*
X249573Y6490D01*
X250362Y7518D01*
X250858Y8715D01*
X251027Y10000D01*
X250858Y11285D01*
X250362Y12482D01*
X249573Y13510D01*
X248545Y14299D01*
X247348Y14795D01*
X246063Y14964D01*
D02*
G37*
G36*
X175984D02*
X174699Y14795D01*
X173502Y14299D01*
X172474Y13510D01*
X171686Y12482D01*
X171190Y11285D01*
X171020Y10000D01*
X171190Y8715D01*
X171686Y7518D01*
X172474Y6490D01*
X173502Y5701D01*
X174699Y5205D01*
X175984Y5036D01*
X177269Y5205D01*
X178466Y5701D01*
X179494Y6490D01*
X180283Y7518D01*
X180779Y8715D01*
X180948Y10000D01*
X180779Y11285D01*
X180283Y12482D01*
X179494Y13510D01*
X178466Y14299D01*
X177269Y14795D01*
X175984Y14964D01*
D02*
G37*
%LPD*%
G36*
X98738Y144408D02*
X98786Y144151D01*
X98097Y143254D01*
X97646Y142166D01*
X97493Y141000D01*
X97646Y139833D01*
X98097Y138747D01*
X98813Y137813D01*
X99669Y137156D01*
X99351Y136679D01*
X98778Y136526D01*
X98710Y136537D01*
X98325Y136614D01*
X97677D01*
Y131890D01*
Y127166D01*
X98325D01*
X98710Y127242D01*
X98778Y127254D01*
X99351Y127100D01*
X99679Y126609D01*
X100396Y126130D01*
X101242Y125961D01*
X103325D01*
X104171Y126130D01*
X104783Y126539D01*
X105396Y126130D01*
X106242Y125961D01*
X107002D01*
X112742Y120222D01*
X113276Y119812D01*
X113899Y119554D01*
X114567Y119466D01*
X149016D01*
Y115748D01*
X157283D01*
Y126378D01*
X157283D01*
Y126575D01*
X157283D01*
Y137205D01*
X149016D01*
Y133093D01*
X148642D01*
X147974Y133005D01*
X147351Y132747D01*
X146817Y132337D01*
X142474Y127995D01*
X139475D01*
X139330Y128171D01*
Y131496D01*
X137283D01*
Y131890D01*
X136890D01*
Y136614D01*
X136242D01*
X135998Y136565D01*
X135742Y137016D01*
X137472Y138746D01*
X164694D01*
X167045Y136394D01*
X166709Y136024D01*
X166242Y136024D01*
X164173D01*
Y132283D01*
X166732D01*
Y135524D01*
X166732Y136000D01*
X167103Y136337D01*
X174710Y128729D01*
Y117533D01*
X174210Y117211D01*
X173411Y117543D01*
X172244Y117696D01*
X171078Y117543D01*
X169991Y117092D01*
X169057Y116376D01*
X168341Y115443D01*
X167891Y114356D01*
X167737Y113189D01*
X167785Y112827D01*
X167421Y112483D01*
X167014Y112638D01*
Y115748D01*
X167913D01*
Y126378D01*
X159646D01*
Y115748D01*
X161852D01*
Y112268D01*
X161086D01*
Y104394D01*
X160586Y104394D01*
X157149D01*
Y97385D01*
X157012Y97247D01*
X156539Y96631D01*
X156241Y95912D01*
X156140Y95141D01*
Y92977D01*
X154984D01*
Y82347D01*
X156140D01*
Y77247D01*
X156077Y76772D01*
Y68578D01*
X155717Y68231D01*
X139111Y68886D01*
X136469Y74698D01*
X136739Y75118D01*
X136890D01*
Y79843D01*
Y84566D01*
X136242D01*
X135857Y84490D01*
X135789Y84478D01*
X135216Y84632D01*
X134887Y85124D01*
X134322Y85501D01*
X134473Y86001D01*
X143850D01*
X146991Y82861D01*
X146970Y82349D01*
X146419Y81927D01*
X145703Y80994D01*
X145253Y79907D01*
X145099Y78740D01*
X145253Y77574D01*
X145703Y76487D01*
X146419Y75553D01*
X147353Y74837D01*
X148440Y74387D01*
X149606Y74233D01*
X150773Y74387D01*
X151860Y74837D01*
X152793Y75553D01*
X153509Y76487D01*
X153960Y77574D01*
X154113Y78740D01*
X153960Y79907D01*
X153509Y80994D01*
X152793Y81927D01*
X152187Y82392D01*
Y83896D01*
X152100Y84564D01*
X151842Y85186D01*
X151431Y85721D01*
X146744Y90408D01*
X146210Y90818D01*
X145587Y91076D01*
X144919Y91164D01*
X130551D01*
X129883Y91076D01*
X129261Y90818D01*
X128726Y90408D01*
X127284Y88965D01*
X125841Y90408D01*
X125306Y90818D01*
X124684Y91076D01*
X124016Y91164D01*
X106299D01*
X105631Y91076D01*
X105009Y90818D01*
X104474Y90408D01*
X101049Y86983D01*
X100993Y86960D01*
X100458Y86550D01*
X100048Y86015D01*
X99790Y85392D01*
X99762Y85179D01*
X99679Y85124D01*
X99351Y84632D01*
X98778Y84478D01*
X98710Y84490D01*
X98325Y84566D01*
X97677D01*
Y79843D01*
Y75118D01*
X98325D01*
X98710Y75195D01*
X98778Y75207D01*
X99351Y75053D01*
X99679Y74561D01*
X100396Y74082D01*
X101242Y73914D01*
X103325D01*
X103554Y73960D01*
X103800Y73499D01*
X102273Y71972D01*
X101560Y72267D01*
X100394Y72421D01*
X99227Y72267D01*
X98140Y71817D01*
X97207Y71100D01*
X96491Y70167D01*
X96040Y69080D01*
X95887Y67913D01*
X96040Y66747D01*
X96371Y65947D01*
X96050Y65447D01*
X87806D01*
X79758Y73495D01*
Y120472D01*
X79623Y121500D01*
X79226Y122458D01*
X78595Y123280D01*
X69488Y132387D01*
Y137402D01*
X61221D01*
Y131345D01*
X57063D01*
X56141Y131162D01*
X55360Y130640D01*
X53720Y129000D01*
X53615Y128983D01*
X53109Y129096D01*
X52703Y129703D01*
X51766Y130640D01*
X50985Y131162D01*
X50063Y131345D01*
X47047D01*
Y137402D01*
X38780D01*
Y132465D01*
X38566Y132376D01*
X37743Y131745D01*
X31192Y125194D01*
X30561Y124371D01*
X30164Y123414D01*
X30029Y122386D01*
Y106645D01*
X23167Y99783D01*
X21501Y100673D01*
X20038Y101117D01*
Y101639D01*
X21501Y102083D01*
X23211Y102997D01*
X24710Y104227D01*
X25940Y105726D01*
X26854Y107436D01*
X27417Y109291D01*
X27607Y111221D01*
X27417Y113150D01*
X26854Y115005D01*
X25940Y116715D01*
X24710Y118214D01*
X23211Y119444D01*
X21688Y120258D01*
Y123355D01*
X42983Y144651D01*
X51992D01*
X52239Y144151D01*
X51943Y143765D01*
X51590Y142914D01*
X51536Y142500D01*
X58464D01*
X58410Y142914D01*
X58057Y143765D01*
X57761Y144151D01*
X58008Y144651D01*
X98655D01*
X98738Y144408D01*
D02*
G37*
G36*
X46804Y99571D02*
X46304Y99324D01*
X46056Y99514D01*
X45205Y99867D01*
X44791Y99921D01*
Y96457D01*
Y92628D01*
X45338Y92263D01*
X46260Y92080D01*
X47184D01*
Y90958D01*
X42217Y85991D01*
X41631Y86112D01*
X41305Y86899D01*
X40589Y87833D01*
X40022Y88268D01*
Y88898D01*
X40589Y89333D01*
X41305Y90266D01*
X41755Y91353D01*
X41909Y92520D01*
X41803Y93324D01*
X42271Y93595D01*
X42526Y93400D01*
X43378Y93047D01*
X43791Y92992D01*
Y95957D01*
X40418D01*
X40329Y95906D01*
X39810Y96304D01*
Y100380D01*
X45404Y105974D01*
X45818Y106595D01*
X46804D01*
Y99571D01*
D02*
G37*
G36*
X61614Y109154D02*
X62795D01*
Y107776D01*
X63756D01*
Y103847D01*
X63519Y103276D01*
X63465Y102862D01*
X70394D01*
X70339Y103276D01*
X69986Y104127D01*
X69425Y104858D01*
X69315Y104943D01*
Y106942D01*
X70472D01*
X71316Y107110D01*
X71816Y106880D01*
Y96613D01*
X71355Y96422D01*
X70601Y97176D01*
X69819Y97698D01*
X68898Y97881D01*
X65551D01*
Y98695D01*
X65910Y98934D01*
X66051Y98948D01*
X66429Y98898D01*
Y101862D01*
X63465D01*
X63519Y101449D01*
X63872Y100597D01*
X64027Y100395D01*
X63798Y99943D01*
X63399Y99970D01*
X63249Y100725D01*
X62727Y101506D01*
X59495Y104738D01*
Y109252D01*
X59699Y109501D01*
X61614D01*
Y109154D01*
D02*
G37*
G36*
X54678Y108254D02*
Y103740D01*
X54861Y102819D01*
X55384Y102037D01*
X57149Y100271D01*
X57284Y99803D01*
X57284D01*
X57284Y99803D01*
Y91201D01*
X46496Y80413D01*
X44105D01*
X43913Y80875D01*
X51296Y88258D01*
X51818Y89039D01*
X52001Y89961D01*
Y90354D01*
X53740D01*
Y94095D01*
X50787D01*
Y94882D01*
X53740D01*
Y98622D01*
X51621D01*
Y110604D01*
X52121Y110811D01*
X54678Y108254D01*
D02*
G37*
G36*
X63867Y88757D02*
X63765Y88512D01*
X63711Y88098D01*
X67175D01*
Y87098D01*
X63711D01*
X63765Y86685D01*
X63783Y86643D01*
Y86597D01*
X63966Y85675D01*
X64488Y84894D01*
X68261Y81121D01*
Y79947D01*
X67761Y79680D01*
X67457Y79883D01*
X66535Y80066D01*
X53667D01*
X53460Y80566D01*
X61742Y88848D01*
X61960Y89173D01*
X63589D01*
X63867Y88757D01*
D02*
G37*
G36*
X137795Y66929D02*
X166486Y65798D01*
X170896Y62992D01*
X170276Y42323D01*
X84646D01*
X70866Y28543D01*
Y16231D01*
X70819Y15748D01*
X70866Y15265D01*
Y7874D01*
X69882Y6890D01*
X54134Y6890D01*
X53150D01*
X51181Y8858D01*
Y24606D01*
X76240Y49665D01*
X103571D01*
X104599Y49801D01*
X105557Y50197D01*
X106379Y50828D01*
X106732Y51181D01*
X118110D01*
X129921Y62992D01*
X131230Y77394D01*
X132874Y77756D01*
X137795Y66929D01*
D02*
G37*
%LPC*%
G36*
X78256Y142244D02*
Y139279D01*
X81220D01*
X81166Y139693D01*
X80813Y140545D01*
X80252Y141276D01*
X79521Y141837D01*
X78670Y142189D01*
X78256Y142244D01*
D02*
G37*
G36*
X77256D02*
X76842Y142189D01*
X75991Y141837D01*
X75260Y141276D01*
X74699Y140545D01*
X74346Y139693D01*
X74291Y139279D01*
X77256D01*
Y142244D01*
D02*
G37*
G36*
X58464Y141500D02*
X55500D01*
Y138536D01*
X55914Y138590D01*
X56765Y138943D01*
X57496Y139504D01*
X58057Y140235D01*
X58410Y141086D01*
X58464Y141500D01*
D02*
G37*
G36*
X54500D02*
X51536D01*
X51590Y141086D01*
X51943Y140235D01*
X52504Y139504D01*
X53235Y138943D01*
X54086Y138590D01*
X54500Y138536D01*
Y141500D01*
D02*
G37*
G36*
X81220Y138279D02*
X78256D01*
Y135315D01*
X78670Y135370D01*
X79521Y135722D01*
X80252Y136283D01*
X80813Y137014D01*
X81166Y137866D01*
X81220Y138279D01*
D02*
G37*
G36*
X77256D02*
X74291D01*
X74346Y137866D01*
X74699Y137014D01*
X75260Y136283D01*
X75991Y135722D01*
X76842Y135370D01*
X77256Y135315D01*
Y138279D01*
D02*
G37*
G36*
X96890Y136614D02*
X96242D01*
X95857Y136537D01*
X95531Y136319D01*
X95313Y135993D01*
X95236Y135609D01*
Y134868D01*
X94330D01*
Y135609D01*
X94254Y135993D01*
X94036Y136319D01*
X93710Y136537D01*
X93325Y136614D01*
X92677D01*
Y131890D01*
Y127166D01*
X93325D01*
X93710Y127242D01*
X94036Y127460D01*
X94254Y127786D01*
X94330Y128171D01*
Y128911D01*
X95236D01*
Y128171D01*
X95313Y127786D01*
X95531Y127460D01*
X95857Y127242D01*
X96242Y127166D01*
X96890D01*
Y131890D01*
Y136614D01*
D02*
G37*
G36*
X163386Y136024D02*
X160827D01*
Y132283D01*
X163386D01*
Y136024D01*
D02*
G37*
G36*
X138325Y136614D02*
X137677D01*
Y132283D01*
X139330D01*
Y135609D01*
X139254Y135993D01*
X139036Y136319D01*
X138710Y136537D01*
X138325Y136614D01*
D02*
G37*
G36*
X166732Y131496D02*
X164173D01*
Y127756D01*
X166732D01*
Y131496D01*
D02*
G37*
G36*
X163386D02*
X160827D01*
Y127756D01*
X163386D01*
Y131496D01*
D02*
G37*
G36*
X91890Y136614D02*
X91242D01*
X90857Y136537D01*
X90531Y136319D01*
X90313Y135993D01*
X90237Y135609D01*
Y134041D01*
X90177Y133996D01*
X89704Y133379D01*
X89407Y132660D01*
X89305Y131890D01*
X89407Y131119D01*
X89704Y130401D01*
X90177Y129784D01*
X90237Y129738D01*
Y128171D01*
X90313Y127786D01*
X90531Y127460D01*
X90857Y127242D01*
X91242Y127166D01*
X91890D01*
Y131890D01*
Y136614D01*
D02*
G37*
G36*
X89291Y112362D02*
X81024D01*
Y106260D01*
X89291D01*
Y112362D01*
D02*
G37*
G36*
X148543D02*
X140276D01*
Y106260D01*
X148543D01*
Y112362D01*
D02*
G37*
G36*
Y105472D02*
X140276D01*
Y99370D01*
X148543D01*
Y105472D01*
D02*
G37*
G36*
X89291Y105472D02*
X81024D01*
Y99370D01*
X89291D01*
Y105472D01*
D02*
G37*
G36*
X134468Y118465D02*
X115177D01*
Y105866D01*
Y93268D01*
X134468D01*
Y99370D01*
X139488D01*
Y105866D01*
Y112362D01*
X134468D01*
Y118465D01*
D02*
G37*
G36*
X114390D02*
X95098D01*
Y112362D01*
X90079D01*
Y105866D01*
Y99370D01*
X95098D01*
Y93268D01*
X114390D01*
Y105866D01*
Y118465D01*
D02*
G37*
G36*
X96890Y84566D02*
X96242D01*
X95857Y84490D01*
X95531Y84272D01*
X95313Y83946D01*
X95236Y83561D01*
Y82821D01*
X94330D01*
Y83561D01*
X94254Y83946D01*
X94036Y84272D01*
X93710Y84490D01*
X93325Y84566D01*
X92677D01*
Y79843D01*
Y75118D01*
X93325D01*
X93710Y75195D01*
X94036Y75413D01*
X94254Y75739D01*
X94330Y76124D01*
Y76864D01*
X95236D01*
Y76124D01*
X95313Y75739D01*
X95531Y75413D01*
X95857Y75195D01*
X96242Y75118D01*
X96890D01*
Y79843D01*
Y84566D01*
D02*
G37*
G36*
X138325D02*
X137677D01*
Y80236D01*
X139330D01*
Y83561D01*
X139254Y83946D01*
X139036Y84272D01*
X138710Y84490D01*
X138325Y84566D01*
D02*
G37*
G36*
X139330Y79449D02*
X137677D01*
Y75118D01*
X138325D01*
X138710Y75195D01*
X139036Y75413D01*
X139254Y75739D01*
X139330Y76124D01*
Y79449D01*
D02*
G37*
G36*
X91890Y84566D02*
X91242D01*
X90857Y84490D01*
X90531Y84272D01*
X90313Y83946D01*
X90237Y83561D01*
Y81994D01*
X90177Y81948D01*
X89704Y81332D01*
X89407Y80613D01*
X89305Y79843D01*
X89407Y79072D01*
X89704Y78353D01*
X90177Y77737D01*
X90237Y77691D01*
Y76124D01*
X90313Y75739D01*
X90531Y75413D01*
X90857Y75195D01*
X91242Y75118D01*
X91890D01*
Y79843D01*
Y84566D01*
D02*
G37*
G36*
X43791Y99921D02*
X43378Y99867D01*
X42526Y99514D01*
X41795Y98953D01*
X41234Y98222D01*
X40881Y97370D01*
X40827Y96957D01*
X43791D01*
Y99921D01*
D02*
G37*
G36*
X70394Y101862D02*
X67429D01*
Y98898D01*
X67843Y98952D01*
X68694Y99305D01*
X69425Y99866D01*
X69986Y100597D01*
X70339Y101449D01*
X70394Y101862D01*
D02*
G37*
%LPD*%
D10*
X60532Y114469D02*
X66535D01*
X55000Y120000D02*
X60532Y114469D01*
X55000Y120000D02*
Y126874D01*
X57063Y128937D01*
X49593Y94488D02*
Y95092D01*
X66191Y86597D02*
Y87845D01*
X49593Y89961D02*
Y94488D01*
X66535Y109350D02*
X70472D01*
X66535Y102756D02*
X66929Y102362D01*
X58090Y111910D02*
X69387D01*
X51000Y119000D02*
X58090Y111910D01*
X51000Y119000D02*
Y128000D01*
X50063Y128937D02*
X51000Y128000D01*
X42913Y128937D02*
X50063D01*
X57063D02*
X65354D01*
X70472Y109350D02*
X71850Y110728D01*
Y116142D01*
X70964Y117028D02*
X71850Y116142D01*
X66535Y117028D02*
X70964D01*
X40256Y69980D02*
X41732D01*
X37402Y72835D02*
X40256Y69980D01*
X37402Y72835D02*
Y84646D01*
X40849Y72539D02*
X43701D01*
X39567Y73822D02*
X40849Y72539D01*
X39567Y73822D02*
Y79935D01*
X43701Y107677D02*
Y109350D01*
X37402Y101378D02*
X43701Y107677D01*
X37402Y92520D02*
Y101378D01*
X49593Y94488D02*
X50787D01*
X46260D02*
X49593D01*
X44291Y96457D02*
X46260Y94488D01*
X61024Y95472D02*
X68898D01*
X60039Y90551D02*
Y95472D01*
X57087Y103740D02*
X61024Y99803D01*
Y95472D02*
Y99803D01*
X72244Y65551D02*
X76772Y61024D01*
X72244Y65551D02*
Y92126D01*
X68898Y95472D02*
X72244Y92126D01*
X47146Y77658D02*
X60039Y90551D01*
X49213Y95472D02*
Y111221D01*
Y95472D02*
X49593Y95092D01*
X69387Y69980D02*
X70669Y71263D01*
X66535Y69980D02*
X69387D01*
X70669Y73822D02*
Y82118D01*
X66191Y86597D02*
X70669Y82118D01*
X66437Y87598D02*
X67175D01*
X66191Y87845D02*
X66437Y87598D01*
X39567Y79935D02*
X49593Y89961D01*
X48524Y111909D02*
X49213Y111221D01*
X70666Y73819D02*
X70669Y73822D01*
X70666Y73819D02*
X70666D01*
X70669Y73816D01*
Y71263D02*
Y73816D01*
X76772Y60073D02*
Y61024D01*
X43701Y72539D02*
X43996Y72835D01*
X48425D01*
X53248Y77658D01*
X66535D01*
X43701Y111909D02*
X48524D01*
X57087Y103740D02*
Y109252D01*
X49311Y117028D02*
X57087Y109252D01*
X43701Y77658D02*
X47146D01*
X43701Y117028D02*
X49311D01*
X55413Y75098D02*
X66535D01*
X52165Y71850D02*
X55413Y75098D01*
X52165Y61024D02*
Y71850D01*
X50197Y59055D02*
X52165Y61024D01*
X43898Y59055D02*
X50197D01*
X42913Y58071D02*
X43898Y59055D01*
X56102Y70866D02*
X57775Y72539D01*
X64567D01*
X56102Y61024D02*
Y70866D01*
Y61024D02*
X59055Y58071D01*
X65354D01*
D11*
X17717Y71850D02*
X18032D01*
D13*
X65354Y128937D02*
D03*
X42913D02*
D03*
X65354Y58071D02*
D03*
X42913D02*
D03*
D14*
X131890Y161811D02*
D03*
Y151181D02*
D03*
X43307Y41732D02*
D03*
Y31102D02*
D03*
D15*
X82087Y160433D02*
D03*
X71457D02*
D03*
X82087Y174213D02*
D03*
X71457D02*
D03*
X194488Y130905D02*
D03*
X205118D02*
D03*
X194488Y151575D02*
D03*
X205118D02*
D03*
X194488Y171260D02*
D03*
X205118D02*
D03*
D16*
X92283Y131890D02*
D03*
X97283D02*
D03*
X102283D02*
D03*
X107283D02*
D03*
X112283D02*
D03*
X117283D02*
D03*
X122283D02*
D03*
X127283D02*
D03*
X132283D02*
D03*
X137283D02*
D03*
Y79843D02*
D03*
X132283D02*
D03*
X127283D02*
D03*
X122283D02*
D03*
X117283D02*
D03*
X112283D02*
D03*
X107283D02*
D03*
X102283D02*
D03*
X97283D02*
D03*
X92283D02*
D03*
D17*
X66535Y109350D02*
D03*
Y111909D02*
D03*
X43701Y109350D02*
D03*
Y111909D02*
D03*
X66535Y114469D02*
D03*
Y117028D02*
D03*
X43701Y114469D02*
D03*
Y117028D02*
D03*
X66535Y69980D02*
D03*
Y72539D02*
D03*
X43701Y69980D02*
D03*
Y72539D02*
D03*
X66535Y75098D02*
D03*
Y77658D02*
D03*
X43701Y75098D02*
D03*
Y77658D02*
D03*
D18*
X13780Y41339D02*
D03*
X25591D02*
D03*
D19*
X181102Y53150D02*
D03*
X162205D02*
D03*
D20*
X61417Y94488D02*
D03*
X50787D02*
D03*
X169748Y87662D02*
D03*
X159118D02*
D03*
X163779Y131890D02*
D03*
X153150D02*
D03*
X163779Y121063D02*
D03*
X153150D02*
D03*
X189370Y77756D02*
D03*
X178740D02*
D03*
D21*
X168370Y100457D02*
D03*
X160496D02*
D03*
X164433Y108331D02*
D03*
D39*
X139882Y105866D02*
D03*
X89685D02*
D03*
D40*
X114783D02*
D03*
D41*
X168370Y95410D02*
Y102299D01*
X101716Y141000D02*
X102283Y140433D01*
Y131890D02*
Y140433D01*
X101716Y141000D02*
X102000D01*
X129921Y151575D02*
X147638D01*
X40551Y128937D02*
X42913D01*
X17717Y91535D02*
X20535D01*
X43701Y114469D02*
X43701Y114469D01*
Y117028D01*
Y75098D02*
Y77658D01*
X114567Y122047D02*
X153740D01*
X106890Y129724D02*
X114567Y122047D01*
X183661Y109646D02*
X192913Y100394D01*
X110394Y196338D02*
X111969Y197913D01*
X191929Y100394D02*
X192913D01*
X127284Y85315D02*
X130551Y88583D01*
X144919D02*
X149606Y83896D01*
X130551Y88583D02*
X144919D01*
X149606Y78740D02*
Y83896D01*
X37402Y92520D02*
X38189Y93307D01*
X82087Y167323D02*
Y174213D01*
Y160433D02*
Y167323D01*
X155512D01*
X177165Y145669D01*
X41732Y117028D02*
X43701D01*
X25591Y41339D02*
X38780D01*
X39370Y40748D01*
X52165Y167323D02*
X59055Y160433D01*
X52165Y167323D02*
Y168307D01*
Y180118D02*
X58071Y174213D01*
X52165Y180118D02*
Y181102D01*
X58071Y174213D02*
X71457D01*
X59055Y160433D02*
X71457D01*
X82087Y160433D02*
X82087Y160433D01*
X82087Y160433D02*
X82087Y160433D01*
X145984Y10000D02*
Y20000D01*
X168370Y102299D02*
X172244Y106174D01*
Y113189D01*
X183661Y109646D02*
Y152903D01*
X186811Y116339D02*
Y154207D01*
Y116339D02*
X217520Y85630D01*
Y75787D02*
Y85630D01*
X117126Y151575D02*
X118110D01*
X122283Y147402D01*
Y131890D02*
Y147402D01*
X226378Y66929D02*
X233268D01*
X217520Y75787D02*
X226378Y66929D01*
X216535Y96457D02*
X220472D01*
X189961Y123031D02*
X216535Y96457D01*
X189961Y123031D02*
Y155512D01*
X199803Y119095D02*
X211614D01*
X194488Y124409D02*
X199803Y119095D01*
X194488Y124409D02*
Y151575D01*
X163336Y173228D02*
X183661Y152903D01*
X116811Y173228D02*
X163336D01*
X108721Y181319D02*
X116811Y173228D01*
X130905Y148917D02*
Y150591D01*
X129921Y151575D02*
X130905Y150591D01*
X127284Y145295D02*
X130905Y148917D01*
X127284Y131890D02*
Y145295D01*
X123327Y191083D02*
X131063Y198819D01*
X117983Y191083D02*
X123327D01*
X111870Y189626D02*
X121063Y198819D01*
X111870Y182624D02*
Y189626D01*
X115020Y188119D02*
X117983Y191083D01*
X120079Y186024D02*
X170276D01*
X115020Y183928D02*
Y188119D01*
Y183928D02*
X117983Y180965D01*
X164508D01*
X117328Y177165D02*
X163853D01*
X111870Y182624D02*
X117328Y177165D01*
X108721Y181319D02*
Y193366D01*
X110394Y195039D01*
Y196338D01*
X164508Y180965D02*
X189961Y155512D01*
X163853Y177165D02*
X186811Y154207D01*
X174213Y182087D02*
X186063Y193937D01*
X170276Y186024D02*
X174213Y182087D01*
X186063Y193937D02*
Y198819D01*
X237205Y44291D02*
X253937Y61024D01*
Y70866D01*
X247047Y77756D02*
X253937Y70866D01*
X247047Y77756D02*
Y93504D01*
X222441Y118110D02*
X247047Y93504D01*
X252953Y82677D02*
Y96457D01*
X226063Y123346D02*
X252953Y96457D01*
X222441Y118110D02*
Y179651D01*
X226063Y123346D02*
Y198819D01*
X206063Y191575D02*
X218504Y179134D01*
Y107283D02*
Y179134D01*
X216063Y186029D02*
X222441Y179651D01*
X216063Y186029D02*
Y198819D01*
X206063Y191575D02*
Y198819D01*
X124016Y67913D02*
Y68898D01*
X122283Y70630D02*
X124016Y68898D01*
X100394Y67913D02*
X101865D01*
X107283Y73332D01*
X232795Y127480D02*
X235236D01*
X258858Y103858D01*
Y47244D02*
Y103858D01*
X244094Y32480D02*
X258858Y47244D01*
X158465Y32480D02*
X244094D01*
X145984Y20000D02*
X158465Y32480D01*
X194488Y151575D02*
X194488Y151575D01*
X194488Y151575D02*
Y171260D01*
X147638Y151575D02*
X148032Y151969D01*
X102284Y84567D02*
Y84724D01*
Y79843D02*
Y84567D01*
X114744Y125413D02*
X143543D01*
X112284Y127874D02*
X114744Y125413D01*
X112284Y127874D02*
Y131890D01*
X143543Y125413D02*
X148642Y130512D01*
X153543D01*
X107283Y73332D02*
Y79843D01*
X122283Y70630D02*
Y79843D01*
X164433Y108331D02*
Y120079D01*
X205118Y130905D02*
X205118Y130905D01*
X211614D01*
X205118Y151575D02*
X205118Y151575D01*
X211614D01*
X205118Y171260D02*
X205118Y171260D01*
X211614D01*
X127284Y79843D02*
Y85315D01*
X124016Y88583D02*
X127284Y85315D01*
X106299Y88583D02*
X124016D01*
X102284Y84567D02*
X106299Y88583D01*
X169748Y87662D02*
Y94032D01*
X168370Y95410D02*
X169748Y94032D01*
D42*
X65354Y130905D02*
X75787Y120472D01*
X34000Y122386D02*
X40551Y128937D01*
X34000Y105000D02*
Y122386D01*
X20535Y91535D02*
X34000Y105000D01*
X75787Y71850D02*
Y120472D01*
X103571Y53636D02*
X117283Y67348D01*
X69882Y57087D02*
X73332Y53636D01*
X103571D01*
X66339Y57087D02*
X69882D01*
X65354Y58071D02*
X66339Y57087D01*
X41339Y148622D02*
X107283D01*
X17717Y125000D02*
X41339Y148622D01*
X107283D02*
X117283Y138622D01*
X17717Y71850D02*
X31496Y58071D01*
X42913D01*
X75787Y71850D02*
X86161Y61476D01*
X17717Y111221D02*
X18701Y110236D01*
X17717Y111221D02*
Y125000D01*
X46654Y30118D02*
X61024Y15748D01*
X178681Y72382D02*
Y130374D01*
X166339Y142717D02*
X178681Y130374D01*
X165354Y59055D02*
X178681Y72382D01*
X103060Y61476D02*
X112284Y70700D01*
X86161Y61476D02*
X103060D01*
X135827Y142717D02*
X166339D01*
X132283Y139173D02*
X135827Y142717D01*
D43*
X66535Y102756D02*
Y109350D01*
D44*
X41929Y129921D02*
X43307D01*
D45*
X92283Y79843D02*
X97283D01*
X92283Y131890D02*
X97283D01*
X39370Y30118D02*
X46654D01*
X61024Y15748D02*
Y17126D01*
X117283Y67348D02*
Y79843D01*
X112284Y70700D02*
Y79843D01*
X117283Y131890D02*
Y138622D01*
X159055Y63386D02*
Y76772D01*
X159118Y76834D02*
Y87662D01*
X159055Y76772D02*
X159118Y76834D01*
X132283Y131890D02*
Y139173D01*
X159118Y87662D02*
Y95141D01*
X160496Y96519D01*
Y100457D01*
D46*
X80709Y15748D02*
D03*
X61024D02*
D03*
X17717Y111221D02*
D03*
Y91535D02*
D03*
Y71850D02*
D03*
D47*
X235236Y127480D02*
D03*
Y137480D02*
D03*
Y147480D02*
D03*
Y157480D02*
D03*
X115984Y10000D02*
D03*
X125984D02*
D03*
X135984D02*
D03*
X145984D02*
D03*
X155984D02*
D03*
X165984D02*
D03*
X175984D02*
D03*
X206063D02*
D03*
X216063D02*
D03*
X226063D02*
D03*
X236063D02*
D03*
X246063D02*
D03*
X91063Y198819D02*
D03*
X161063D02*
D03*
X151063D02*
D03*
X141063D02*
D03*
X131063D02*
D03*
X121063D02*
D03*
X111063D02*
D03*
X101063D02*
D03*
X81063D02*
D03*
X186063D02*
D03*
X196063D02*
D03*
X206063D02*
D03*
X216063D02*
D03*
X226063D02*
D03*
X236063D02*
D03*
X246063D02*
D03*
D48*
X235236Y167480D02*
D03*
D49*
X105984Y10000D02*
D03*
X196063D02*
D03*
X71063Y198819D02*
D03*
X176063D02*
D03*
D50*
X257874Y137795D02*
D03*
Y27559D02*
D03*
X59055Y198819D02*
D03*
D51*
X102000Y141000D02*
D03*
X66929Y102362D02*
D03*
X191929Y100394D02*
D03*
X44291Y96457D02*
D03*
X149606Y78740D02*
D03*
X169187Y24403D02*
D03*
X193898Y66929D02*
D03*
X91535Y158465D02*
D03*
X77756Y138779D02*
D03*
X37402Y92520D02*
D03*
X177165Y145669D02*
D03*
X67175Y87598D02*
D03*
X76772Y60073D02*
D03*
X55000Y142000D02*
D03*
X52165Y168307D02*
D03*
Y181102D02*
D03*
X172244Y113189D02*
D03*
X117126Y151575D02*
D03*
X235236Y66929D02*
D03*
X220472Y96457D02*
D03*
X120079Y186024D02*
D03*
X235236Y44291D02*
D03*
X218504Y106299D02*
D03*
X252953Y81693D02*
D03*
X211614Y119095D02*
D03*
X124016Y67913D02*
D03*
X100394D02*
D03*
X37402Y84646D02*
D03*
X147638Y151575D02*
D03*
X211614Y130905D02*
D03*
Y151575D02*
D03*
Y171260D02*
D03*
M02*
