G04*
G04 #@! TF.GenerationSoftware,Altium Limited,Altium Designer,18.0.7 (293)*
G04*
G04 Layer_Physical_Order=2*
G04 Layer_Color=16711680*
%FSLAX25Y25*%
%MOIN*%
G70*
G01*
G75*
%ADD10C,0.00787*%
%ADD47C,0.01181*%
%ADD48C,0.03937*%
%ADD52C,0.15748*%
%ADD53C,0.05906*%
%ADD54R,0.05906X0.05906*%
%ADD55R,0.05906X0.05906*%
%ADD56C,0.12598*%
%ADD57C,0.05000*%
%ADD58R,0.06000X0.06000*%
%ADD59R,0.06000X0.06000*%
G36*
X252210Y201029D02*
Y155753D01*
X263179Y144784D01*
X262843Y144413D01*
X262490Y144703D01*
X261053Y145471D01*
X259495Y145943D01*
X257874Y146103D01*
X256253Y145943D01*
X254695Y145471D01*
X253258Y144703D01*
X252000Y143670D01*
X251309Y142829D01*
X250810Y143008D01*
Y152283D01*
X250722Y152951D01*
X250464Y153574D01*
X250054Y154108D01*
X240157Y164004D01*
Y172401D01*
X235776D01*
X227219Y180959D01*
X226684Y181369D01*
X226062Y181627D01*
X225394Y181715D01*
X224457D01*
Y184102D01*
X214520D01*
Y175228D01*
X214071Y175007D01*
X213868Y175163D01*
X212781Y175613D01*
X211614Y175767D01*
X210448Y175613D01*
X209361Y175163D01*
X208427Y174447D01*
X207711Y173513D01*
X207261Y172426D01*
X207107Y171260D01*
X207261Y170093D01*
X207711Y169006D01*
X208427Y168073D01*
X209361Y167357D01*
X210448Y166906D01*
X211614Y166753D01*
X212781Y166906D01*
X213868Y167357D01*
X214071Y167513D01*
X214520Y167292D01*
Y166291D01*
X224457D01*
Y174165D01*
Y175767D01*
X224919Y175959D01*
X230315Y170562D01*
Y162559D01*
X232712D01*
X232743Y162324D01*
X232861Y162038D01*
X232754Y161779D01*
X231726Y160990D01*
X231014Y160061D01*
X230400D01*
X229187Y161274D01*
X228653Y161684D01*
X228030Y161942D01*
X227362Y162030D01*
X224457D01*
Y164417D01*
X214520D01*
Y156543D01*
Y155543D01*
X214071Y155322D01*
X213868Y155478D01*
X212781Y155928D01*
X211614Y156082D01*
X210448Y155928D01*
X209361Y155478D01*
X208427Y154762D01*
X207711Y153828D01*
X207261Y152741D01*
X207107Y151575D01*
X207261Y150408D01*
X207711Y149321D01*
X208427Y148388D01*
X209361Y147672D01*
X210448Y147221D01*
X211614Y147068D01*
X212781Y147221D01*
X213868Y147672D01*
X214071Y147828D01*
X214520Y147607D01*
Y146606D01*
X224457D01*
Y154480D01*
Y156868D01*
X226293D01*
X227505Y155655D01*
X228040Y155245D01*
X228663Y154987D01*
X229331Y154899D01*
X231014D01*
X231726Y153970D01*
X232754Y153182D01*
X233828Y152737D01*
X233828Y152736D01*
Y152224D01*
X233828Y152224D01*
X232754Y151779D01*
X231726Y150990D01*
X230999Y150043D01*
X230474Y149973D01*
X229851Y149716D01*
X229317Y149305D01*
X223759Y143748D01*
X214520D01*
Y134874D01*
X214071Y134652D01*
X213868Y134809D01*
X212781Y135259D01*
X211614Y135413D01*
X210448Y135259D01*
X209361Y134809D01*
X208427Y134092D01*
X207711Y133159D01*
X207261Y132072D01*
X207107Y130905D01*
X207261Y129739D01*
X207711Y128652D01*
X208427Y127718D01*
X209361Y127002D01*
X210448Y126552D01*
X211614Y126399D01*
X212781Y126552D01*
X213868Y127002D01*
X214071Y127158D01*
X214520Y126937D01*
Y125937D01*
X219074D01*
X219266Y125475D01*
X215686Y121895D01*
X215071Y121929D01*
X214801Y122282D01*
X213868Y122998D01*
X212781Y123448D01*
X211614Y123601D01*
X210448Y123448D01*
X209361Y122998D01*
X208427Y122282D01*
X207830Y121503D01*
X197848D01*
X191385Y127966D01*
Y131890D01*
X191201Y132811D01*
X190679Y133593D01*
X180976Y143296D01*
X181069Y143416D01*
X181519Y144503D01*
X181672Y145669D01*
X181519Y146836D01*
X181069Y147923D01*
X180352Y148856D01*
X179419Y149573D01*
X178332Y150023D01*
X177165Y150176D01*
X175999Y150023D01*
X174912Y149573D01*
X173978Y148856D01*
X173262Y147923D01*
X172812Y146836D01*
X172658Y145669D01*
X172812Y144503D01*
X173262Y143416D01*
X173978Y142482D01*
X174912Y141766D01*
X175999Y141316D01*
X176268Y141280D01*
X176447Y141014D01*
X186568Y130892D01*
Y126969D01*
X186751Y126047D01*
X187273Y125266D01*
X195147Y117391D01*
X195929Y116869D01*
X196850Y116686D01*
X207830D01*
X208427Y115908D01*
X209361Y115191D01*
X210448Y114741D01*
X211614Y114587D01*
X212781Y114741D01*
X213868Y115191D01*
X214801Y115908D01*
X215266Y116513D01*
X216535D01*
X217203Y116601D01*
X217826Y116859D01*
X218361Y117269D01*
X225990Y124899D01*
X231014D01*
X231726Y123970D01*
X232754Y123181D01*
X233951Y122686D01*
X235236Y122517D01*
X236521Y122686D01*
X237718Y123181D01*
X238112Y123484D01*
X238561Y123263D01*
Y117652D01*
X234395Y113487D01*
X233985Y112952D01*
X233727Y112329D01*
X233639Y111662D01*
Y110284D01*
X223378D01*
Y107896D01*
X222679D01*
X222407Y108553D01*
X221691Y109486D01*
X220758Y110202D01*
X219670Y110653D01*
X218504Y110806D01*
X217337Y110653D01*
X216250Y110202D01*
X215317Y109486D01*
X214601Y108553D01*
X214151Y107466D01*
X213997Y106299D01*
X214151Y105133D01*
X214601Y104046D01*
X215317Y103112D01*
X216250Y102396D01*
X217337Y101946D01*
X218504Y101792D01*
X219670Y101946D01*
X220758Y102396D01*
X221198Y102734D01*
X223378D01*
Y100490D01*
X222941Y100195D01*
X222726Y100360D01*
X221639Y100810D01*
X220472Y100964D01*
X219306Y100810D01*
X218219Y100360D01*
X217285Y99644D01*
X216569Y98710D01*
X216119Y97623D01*
X215965Y96457D01*
X216119Y95290D01*
X216569Y94203D01*
X217285Y93270D01*
X218219Y92554D01*
X219306Y92103D01*
X220472Y91950D01*
X221639Y92103D01*
X222726Y92554D01*
X223659Y93270D01*
X224376Y94203D01*
X224648Y94860D01*
X231252D01*
Y92818D01*
X230985D01*
X230317Y92730D01*
X229695Y92472D01*
X229160Y92062D01*
X226293Y89195D01*
X206778D01*
X198730Y97243D01*
X198830Y98000D01*
X198676Y99167D01*
X198226Y100253D01*
X197510Y101187D01*
X196576Y101903D01*
X195489Y102354D01*
X194323Y102507D01*
X193156Y102354D01*
X192069Y101903D01*
X191136Y101187D01*
X190420Y100253D01*
X189969Y99167D01*
X189816Y98000D01*
X189969Y96833D01*
X190420Y95746D01*
X191136Y94813D01*
X192069Y94097D01*
X193156Y93647D01*
X194323Y93493D01*
X195080Y93593D01*
X203884Y84789D01*
X204418Y84379D01*
X205041Y84121D01*
X205709Y84033D01*
X223378D01*
Y75740D01*
X225765D01*
Y69967D01*
X220616Y64817D01*
X220206Y64283D01*
X219948Y63660D01*
X219860Y62992D01*
Y47239D01*
X219398Y47048D01*
X217376Y49069D01*
X216842Y49480D01*
X216219Y49738D01*
X215551Y49825D01*
X212646D01*
Y52213D01*
X202709D01*
Y42276D01*
X202343Y41951D01*
X201266D01*
X200416Y42801D01*
Y50197D01*
X200328Y50865D01*
X200070Y51487D01*
X199660Y52022D01*
X190802Y60880D01*
X190267Y61290D01*
X189644Y61548D01*
X188976Y61636D01*
X96014D01*
X74132Y83518D01*
X73598Y83928D01*
X72975Y84186D01*
X72307Y84274D01*
X69414D01*
X69244Y84774D01*
X69671Y85102D01*
X70232Y85833D01*
X70585Y86685D01*
X70640Y87098D01*
X63711D01*
X63765Y86685D01*
X64118Y85833D01*
X64679Y85102D01*
X65107Y84774D01*
X64937Y84274D01*
X49297D01*
X41809Y91763D01*
X41909Y92520D01*
X41803Y93324D01*
X42271Y93595D01*
X42526Y93400D01*
X43378Y93047D01*
X43791Y92992D01*
Y95957D01*
X40418D01*
X40329Y95906D01*
X39655Y96423D01*
X38568Y96873D01*
X37402Y97027D01*
X36235Y96873D01*
X35148Y96423D01*
X34931Y96257D01*
X34483Y96478D01*
Y112528D01*
X39176Y117222D01*
X33560Y122837D01*
X27704Y116981D01*
X27073Y116159D01*
X26932Y115818D01*
X26432Y115794D01*
X25940Y116715D01*
X24710Y118214D01*
X23211Y119444D01*
X21501Y120358D01*
X19646Y120921D01*
X17717Y121111D01*
X15787Y120921D01*
X13932Y120358D01*
X12222Y119444D01*
X10723Y118214D01*
X9493Y116715D01*
X8579Y115005D01*
X8016Y113150D01*
X7826Y111221D01*
X8016Y109291D01*
X8579Y107436D01*
X9493Y105726D01*
X10723Y104227D01*
X12222Y102997D01*
X13932Y102083D01*
X15395Y101639D01*
Y101117D01*
X13932Y100673D01*
X12222Y99759D01*
X10723Y98529D01*
X9493Y97030D01*
X8579Y95320D01*
X8016Y93465D01*
X7826Y91535D01*
X8016Y89606D01*
X8579Y87751D01*
X9493Y86041D01*
X10723Y84542D01*
X12222Y83312D01*
X13932Y82398D01*
X15395Y81954D01*
Y81432D01*
X13932Y80988D01*
X12222Y80074D01*
X10723Y78844D01*
X9493Y77345D01*
X8579Y75635D01*
X8016Y73780D01*
X7826Y71850D01*
X8016Y69921D01*
X8579Y68066D01*
X9493Y66356D01*
X10723Y64857D01*
X12222Y63627D01*
X13932Y62713D01*
X15787Y62150D01*
X17717Y61960D01*
X19646Y62150D01*
X21501Y62713D01*
X23211Y63627D01*
X24710Y64857D01*
X25940Y66356D01*
X26854Y68066D01*
X27417Y69921D01*
X27607Y71850D01*
X27417Y73780D01*
X26854Y75635D01*
X25940Y77345D01*
X24710Y78844D01*
X23211Y80074D01*
X21501Y80988D01*
X20038Y81432D01*
Y81954D01*
X21501Y82398D01*
X23211Y83312D01*
X24710Y84542D01*
X25940Y86041D01*
X26056Y86258D01*
X26541Y86136D01*
Y78740D01*
X26676Y77712D01*
X27073Y76755D01*
X27704Y75932D01*
X42861Y60775D01*
X48477Y66391D01*
X34633Y80235D01*
X34663Y80484D01*
X35094Y80714D01*
X35195Y80723D01*
X36235Y80292D01*
X37402Y80139D01*
X38159Y80238D01*
X42466Y75931D01*
X43001Y75521D01*
X43623Y75263D01*
X44291Y75175D01*
X70175D01*
X94528Y50821D01*
X95063Y50411D01*
X95685Y50153D01*
X96354Y50065D01*
X140182Y50065D01*
X152702Y37545D01*
X153237Y37135D01*
X153859Y36877D01*
X154527Y36789D01*
X183642D01*
X184008Y36465D01*
Y26528D01*
X186634D01*
X186741Y26269D01*
X187151Y25734D01*
X193482Y19403D01*
Y14921D01*
X191720D01*
X191685Y14993D01*
X191525Y15421D01*
X191952Y16452D01*
X192105Y17618D01*
X191952Y18785D01*
X191502Y19872D01*
X190785Y20805D01*
X189852Y21521D01*
X188765Y21972D01*
X187598Y22125D01*
X186432Y21972D01*
X185345Y21521D01*
X184412Y20805D01*
X183947Y20199D01*
X153602D01*
X152934Y20111D01*
X152312Y19853D01*
X151777Y19443D01*
X149027Y16693D01*
X148565Y16885D01*
Y20016D01*
X148477Y20684D01*
X148220Y21306D01*
X147809Y21841D01*
X144825Y24825D01*
X144291Y25235D01*
X143668Y25493D01*
X143000Y25581D01*
X140069D01*
X135968Y29682D01*
Y33906D01*
Y35733D01*
X136469Y35940D01*
X141593Y30816D01*
X141493Y30059D01*
X141647Y28892D01*
X142097Y27806D01*
X142813Y26872D01*
X143746Y26156D01*
X144834Y25706D01*
X146000Y25552D01*
X147167Y25706D01*
X148254Y26156D01*
X149187Y26872D01*
X149903Y27806D01*
X150354Y28892D01*
X150507Y30059D01*
X150354Y31226D01*
X149903Y32313D01*
X149187Y33246D01*
X148254Y33962D01*
X147167Y34413D01*
X146000Y34566D01*
X145243Y34466D01*
X139010Y40699D01*
X138476Y41109D01*
X137853Y41367D01*
X137185Y41455D01*
X135968D01*
Y43843D01*
X126031D01*
Y33906D01*
Y26032D01*
X132318D01*
X137175Y21175D01*
X137709Y20765D01*
X138332Y20507D01*
X139000Y20419D01*
X141931D01*
X143403Y18947D01*
Y14222D01*
X142474Y13510D01*
X141685Y12482D01*
X141241Y11408D01*
X141240Y11408D01*
X140728D01*
X140728Y11408D01*
X140283Y12482D01*
X139494Y13510D01*
X138466Y14299D01*
X137269Y14795D01*
X135984Y14964D01*
X134824Y14811D01*
X121235Y28400D01*
X120700Y28810D01*
X120078Y29068D01*
X119409Y29156D01*
X112672D01*
X81207Y60622D01*
X81125Y61240D01*
X80675Y62327D01*
X79959Y63260D01*
X79025Y63976D01*
X77938Y64427D01*
X76772Y64580D01*
X75605Y64427D01*
X74518Y63976D01*
X73585Y63260D01*
X72868Y62327D01*
X72418Y61240D01*
X72265Y60073D01*
X72418Y58907D01*
X72868Y57820D01*
X73585Y56886D01*
X74518Y56170D01*
X75605Y55720D01*
X76772Y55566D01*
X77938Y55720D01*
X78553Y55974D01*
X109778Y24750D01*
X110312Y24340D01*
X110935Y24082D01*
X111603Y23994D01*
X118340D01*
X127000Y15334D01*
X126766Y14861D01*
X125984Y14964D01*
X124699Y14795D01*
X123502Y14299D01*
X122474Y13510D01*
X121686Y12482D01*
X121241Y11408D01*
X121240Y11408D01*
X120728D01*
X120728Y11408D01*
X120283Y12482D01*
X119494Y13510D01*
X118466Y14299D01*
X117269Y14795D01*
X115984Y14964D01*
X114699Y14795D01*
X113502Y14299D01*
X112474Y13510D01*
X111686Y12482D01*
X111406Y11806D01*
X110906Y11905D01*
Y14921D01*
X101063D01*
Y5079D01*
X110906D01*
Y8095D01*
X111406Y8194D01*
X111686Y7518D01*
X112474Y6490D01*
X113502Y5701D01*
X114699Y5205D01*
X115984Y5036D01*
X117269Y5205D01*
X118466Y5701D01*
X119494Y6490D01*
X120283Y7518D01*
X120728Y8592D01*
X120728Y8592D01*
X121240D01*
X121241Y8592D01*
X121686Y7518D01*
X122474Y6490D01*
X123502Y5701D01*
X124699Y5205D01*
X125984Y5036D01*
X127269Y5205D01*
X128466Y5701D01*
X129494Y6490D01*
X130283Y7518D01*
X130728Y8592D01*
X130728Y8592D01*
X131240D01*
X131241Y8592D01*
X131685Y7518D01*
X132474Y6490D01*
X133502Y5701D01*
X134699Y5205D01*
X135984Y5036D01*
X137269Y5205D01*
X138466Y5701D01*
X139494Y6490D01*
X140283Y7518D01*
X140728Y8592D01*
X140728Y8592D01*
X141240D01*
X141241Y8592D01*
X141685Y7518D01*
X142474Y6490D01*
X143502Y5701D01*
X144700Y5205D01*
X145984Y5036D01*
X147269Y5205D01*
X148466Y5701D01*
X149494Y6490D01*
X150283Y7518D01*
X150779Y8715D01*
X150948Y10000D01*
X150795Y11161D01*
X154672Y15037D01*
X173978D01*
X174078Y14537D01*
X173502Y14299D01*
X172474Y13510D01*
X171686Y12482D01*
X171190Y11285D01*
X171020Y10000D01*
X171190Y8715D01*
X171686Y7518D01*
X172474Y6490D01*
X173502Y5701D01*
X174699Y5205D01*
X175984Y5036D01*
X177269Y5205D01*
X178466Y5701D01*
X179494Y6490D01*
X180283Y7518D01*
X180779Y8715D01*
X180948Y10000D01*
X180779Y11285D01*
X180283Y12482D01*
X179494Y13510D01*
X178466Y14299D01*
X177891Y14537D01*
X177990Y15037D01*
X183947D01*
X184412Y14431D01*
X185345Y13715D01*
X186432Y13265D01*
X187598Y13111D01*
X188765Y13265D01*
X189852Y13715D01*
X190642Y14321D01*
X191142Y14124D01*
Y5079D01*
X200984D01*
Y8095D01*
X201484Y8194D01*
X201764Y7518D01*
X202553Y6490D01*
X203581Y5701D01*
X204778Y5205D01*
X206063Y5036D01*
X207348Y5205D01*
X208545Y5701D01*
X209573Y6490D01*
X210362Y7518D01*
X210806Y8592D01*
X210807Y8592D01*
X211319D01*
X211320Y8592D01*
X211764Y7518D01*
X212553Y6490D01*
X213581Y5701D01*
X214778Y5205D01*
X216063Y5036D01*
X217348Y5205D01*
X218545Y5701D01*
X219573Y6490D01*
X220362Y7518D01*
X220806Y8592D01*
X220807Y8592D01*
X221319D01*
X221320Y8592D01*
X221764Y7518D01*
X222553Y6490D01*
X223581Y5701D01*
X224778Y5205D01*
X226063Y5036D01*
X227348Y5205D01*
X228545Y5701D01*
X229573Y6490D01*
X230362Y7518D01*
X230806Y8592D01*
X230807Y8592D01*
X231319D01*
X231320Y8592D01*
X231764Y7518D01*
X232553Y6490D01*
X233581Y5701D01*
X234778Y5205D01*
X236063Y5036D01*
X237348Y5205D01*
X238545Y5701D01*
X239573Y6490D01*
X240362Y7518D01*
X240806Y8592D01*
X240807Y8592D01*
X241319D01*
X241320Y8592D01*
X241764Y7518D01*
X242553Y6490D01*
X243581Y5701D01*
X244778Y5205D01*
X246063Y5036D01*
X247348Y5205D01*
X248545Y5701D01*
X249573Y6490D01*
X250362Y7518D01*
X250858Y8715D01*
X251027Y10000D01*
X250858Y11285D01*
X250362Y12482D01*
X249573Y13510D01*
X248644Y14222D01*
Y24606D01*
X248556Y25274D01*
X248298Y25897D01*
X247888Y26431D01*
X246676Y27644D01*
Y42276D01*
X249063D01*
Y50150D01*
Y56362D01*
X259837Y67136D01*
X260247Y67670D01*
X260505Y68293D01*
X260593Y68961D01*
Y119154D01*
X260505Y119822D01*
X260247Y120444D01*
X259837Y120979D01*
X250810Y130006D01*
Y132583D01*
X251309Y132762D01*
X252000Y131921D01*
X253258Y130888D01*
X254695Y130120D01*
X256253Y129647D01*
X257874Y129488D01*
X259495Y129647D01*
X261053Y130120D01*
X262490Y130888D01*
X263521Y131734D01*
X264021Y131498D01*
Y33857D01*
X263521Y33620D01*
X262490Y34467D01*
X261053Y35234D01*
X259495Y35707D01*
X257874Y35867D01*
X256253Y35707D01*
X254695Y35234D01*
X253258Y34467D01*
X252000Y33434D01*
X250966Y32175D01*
X250199Y30738D01*
X249726Y29180D01*
X249566Y27559D01*
X249726Y25938D01*
X250199Y24380D01*
X250966Y22944D01*
X252000Y21685D01*
X253258Y20652D01*
X254695Y19884D01*
X256253Y19411D01*
X257874Y19251D01*
X259495Y19411D01*
X261053Y19884D01*
X262490Y20652D01*
X263521Y21498D01*
X264021Y21261D01*
Y19926D01*
X248273Y4178D01*
X247289Y3194D01*
X8115D01*
X5789Y5520D01*
Y200671D01*
X9843Y204724D01*
X52595Y204768D01*
X52831Y204268D01*
X52148Y203434D01*
X51380Y201998D01*
X50907Y200440D01*
X50747Y198819D01*
X50907Y197198D01*
X51380Y195640D01*
X52148Y194203D01*
X53181Y192945D01*
X54440Y191911D01*
X55876Y191144D01*
X57434Y190671D01*
X59055Y190511D01*
X60676Y190671D01*
X62234Y191144D01*
X63671Y191911D01*
X64929Y192945D01*
X65664Y193840D01*
X66142Y193898D01*
Y193898D01*
X66142Y193898D01*
X68482D01*
Y192211D01*
X67073Y190802D01*
X66662Y190267D01*
X66405Y189645D01*
X66323Y189024D01*
X56055D01*
Y186398D01*
X55796Y186291D01*
X55261Y185880D01*
X54396Y185015D01*
X53332Y185456D01*
X52165Y185609D01*
X50999Y185456D01*
X49912Y185006D01*
X48978Y184289D01*
X48262Y183356D01*
X47812Y182269D01*
X47658Y181102D01*
X47812Y179936D01*
X48262Y178849D01*
X48978Y177915D01*
X49912Y177199D01*
X50999Y176749D01*
X52165Y176595D01*
X53332Y176749D01*
X54419Y177199D01*
X55352Y177915D01*
X56069Y178849D01*
X56167Y179087D01*
X73866D01*
Y189024D01*
X73294D01*
X73047Y189524D01*
X73298Y189851D01*
X73556Y190474D01*
X73644Y191142D01*
Y193898D01*
X75984D01*
Y196914D01*
X76484Y197013D01*
X76764Y196337D01*
X77553Y195309D01*
X78482Y194596D01*
Y179573D01*
X74328Y175419D01*
X73866Y175611D01*
Y176228D01*
X56055D01*
Y173602D01*
X55796Y173495D01*
X55261Y173085D01*
X54396Y172220D01*
X53332Y172661D01*
X52165Y172814D01*
X50999Y172661D01*
X49912Y172210D01*
X48978Y171494D01*
X48262Y170561D01*
X47812Y169474D01*
X47658Y168307D01*
X47812Y167141D01*
X48262Y166054D01*
X48978Y165120D01*
X49912Y164404D01*
X50999Y163954D01*
X51347Y163908D01*
X51497Y163845D01*
X52165Y163758D01*
X52833Y163845D01*
X52984Y163908D01*
X53332Y163954D01*
X54419Y164404D01*
X55352Y165120D01*
X56069Y166054D01*
X56167Y166291D01*
X73866D01*
Y168685D01*
X74487Y168767D01*
X75109Y169025D01*
X75644Y169435D01*
X82888Y176679D01*
X83298Y177213D01*
X83556Y177836D01*
X83644Y178504D01*
Y194596D01*
X84573Y195309D01*
X85362Y196337D01*
X85806Y197411D01*
X85807Y197411D01*
X86319D01*
X86320Y197411D01*
X86764Y196337D01*
X87553Y195309D01*
X88581Y194520D01*
X89778Y194024D01*
X91063Y193855D01*
X92348Y194024D01*
X93545Y194520D01*
X94573Y195309D01*
X95362Y196337D01*
X95858Y197534D01*
X96027Y198819D01*
X95858Y200104D01*
X95362Y201301D01*
X94573Y202329D01*
X93545Y203118D01*
X92348Y203613D01*
X91063Y203783D01*
X89778Y203613D01*
X88581Y203118D01*
X87553Y202329D01*
X86764Y201301D01*
X86320Y200227D01*
X86319Y200227D01*
X85807D01*
X85806Y200227D01*
X85362Y201301D01*
X84573Y202329D01*
X83545Y203118D01*
X82348Y203613D01*
X81063Y203783D01*
X79778Y203613D01*
X78581Y203118D01*
X77553Y202329D01*
X76764Y201301D01*
X76484Y200625D01*
X75984Y200724D01*
Y203740D01*
X66142D01*
X66142Y203740D01*
Y203740D01*
X65651Y203814D01*
X65268Y204280D01*
X65505Y204781D01*
X248273Y204966D01*
X252210Y201029D01*
D02*
G37*
G36*
X231726Y143970D02*
X232754Y143182D01*
X233951Y142686D01*
X235236Y142517D01*
X236521Y142686D01*
X237718Y143182D01*
X238061Y143444D01*
X238561Y143198D01*
Y131698D01*
X238112Y131476D01*
X237718Y131779D01*
X236521Y132275D01*
X235236Y132444D01*
X233951Y132275D01*
X232754Y131779D01*
X231726Y130990D01*
X231014Y130061D01*
X224921D01*
X224833Y130050D01*
X224457Y130379D01*
Y133811D01*
Y137145D01*
X231309Y143998D01*
X231726Y143970D01*
D02*
G37*
%LPC*%
G36*
X246063Y203783D02*
X244778Y203613D01*
X243581Y203118D01*
X242553Y202329D01*
X241764Y201301D01*
X241320Y200227D01*
X241319Y200227D01*
X240807D01*
X240806Y200227D01*
X240362Y201301D01*
X239573Y202329D01*
X238545Y203118D01*
X237348Y203613D01*
X236063Y203783D01*
X234778Y203613D01*
X233581Y203118D01*
X232553Y202329D01*
X231764Y201301D01*
X231320Y200227D01*
X231319Y200227D01*
X230807D01*
X230806Y200227D01*
X230362Y201301D01*
X229573Y202329D01*
X228545Y203118D01*
X227348Y203613D01*
X226063Y203783D01*
X224778Y203613D01*
X223581Y203118D01*
X222553Y202329D01*
X221764Y201301D01*
X221320Y200227D01*
X221319Y200227D01*
X220807D01*
X220806Y200227D01*
X220362Y201301D01*
X219573Y202329D01*
X218545Y203118D01*
X217348Y203613D01*
X216063Y203783D01*
X214778Y203613D01*
X213581Y203118D01*
X212553Y202329D01*
X211764Y201301D01*
X211320Y200227D01*
X211319Y200227D01*
X210807D01*
X210806Y200227D01*
X210362Y201301D01*
X209573Y202329D01*
X208545Y203118D01*
X207348Y203613D01*
X206063Y203783D01*
X204778Y203613D01*
X203581Y203118D01*
X202553Y202329D01*
X201764Y201301D01*
X201320Y200227D01*
X201319Y200227D01*
X200807D01*
X200806Y200227D01*
X200362Y201301D01*
X199573Y202329D01*
X198545Y203118D01*
X197348Y203613D01*
X196063Y203783D01*
X194778Y203613D01*
X193581Y203118D01*
X192553Y202329D01*
X191764Y201301D01*
X191320Y200227D01*
X191319Y200227D01*
X190807D01*
X190806Y200227D01*
X190362Y201301D01*
X189573Y202329D01*
X188545Y203118D01*
X187348Y203613D01*
X186063Y203783D01*
X184778Y203613D01*
X183581Y203118D01*
X182553Y202329D01*
X181764Y201301D01*
X181484Y200625D01*
X180984Y200724D01*
Y203740D01*
X171142D01*
Y197548D01*
X163812Y190218D01*
X163388Y190502D01*
X163556Y190907D01*
X163644Y191575D01*
Y194596D01*
X164573Y195309D01*
X165362Y196337D01*
X165858Y197534D01*
X166027Y198819D01*
X165858Y200104D01*
X165362Y201301D01*
X164573Y202329D01*
X163545Y203118D01*
X162348Y203613D01*
X161063Y203783D01*
X159778Y203613D01*
X158581Y203118D01*
X157553Y202329D01*
X156764Y201301D01*
X156320Y200227D01*
X156319Y200227D01*
X155807D01*
X155806Y200227D01*
X155362Y201301D01*
X154573Y202329D01*
X153545Y203118D01*
X152348Y203613D01*
X151063Y203783D01*
X149778Y203613D01*
X148581Y203118D01*
X147553Y202329D01*
X146764Y201301D01*
X146320Y200227D01*
X146319Y200227D01*
X145807D01*
X145806Y200227D01*
X145362Y201301D01*
X144573Y202329D01*
X143545Y203118D01*
X142348Y203613D01*
X141063Y203783D01*
X139778Y203613D01*
X138581Y203118D01*
X137553Y202329D01*
X136764Y201301D01*
X136320Y200227D01*
X136319Y200227D01*
X135807D01*
X135806Y200227D01*
X135362Y201301D01*
X134573Y202329D01*
X133545Y203118D01*
X132348Y203613D01*
X131063Y203783D01*
X129778Y203613D01*
X128581Y203118D01*
X127553Y202329D01*
X126764Y201301D01*
X126320Y200227D01*
X126319Y200227D01*
X125807D01*
X125806Y200227D01*
X125362Y201301D01*
X124573Y202329D01*
X123545Y203118D01*
X122348Y203613D01*
X121063Y203783D01*
X119778Y203613D01*
X118581Y203118D01*
X117553Y202329D01*
X116764Y201301D01*
X116320Y200227D01*
X116319Y200227D01*
X115807D01*
X115806Y200227D01*
X115362Y201301D01*
X114573Y202329D01*
X113545Y203118D01*
X112348Y203613D01*
X111063Y203783D01*
X109778Y203613D01*
X108581Y203118D01*
X107553Y202329D01*
X106764Y201301D01*
X106268Y200104D01*
X106099Y198819D01*
X106268Y197534D01*
X106764Y196337D01*
X107553Y195309D01*
X108581Y194520D01*
X109778Y194024D01*
X110490Y193931D01*
X112968Y191452D01*
X113503Y191042D01*
X114125Y190784D01*
X114793Y190696D01*
X118376D01*
X118476Y190196D01*
X117825Y189927D01*
X116892Y189211D01*
X116427Y188605D01*
X116142D01*
X115474Y188517D01*
X114851Y188259D01*
X114317Y187849D01*
X108411Y181943D01*
X108001Y181409D01*
X107743Y180786D01*
X107655Y180118D01*
Y178197D01*
X105268D01*
Y170323D01*
Y168920D01*
X104331D01*
X103663Y168832D01*
X103040Y168574D01*
X102506Y168164D01*
X98569Y164227D01*
X98158Y163692D01*
X97900Y163070D01*
X97813Y162402D01*
Y155512D01*
X97900Y154844D01*
X98158Y154221D01*
X98569Y153687D01*
X102506Y149750D01*
X102705Y149597D01*
X102535Y149097D01*
X95335D01*
X94667Y149009D01*
X94044Y148751D01*
X93510Y148341D01*
X90695Y145526D01*
X90284Y144991D01*
X90026Y144369D01*
X89939Y143701D01*
Y126480D01*
X90026Y125812D01*
X90284Y125190D01*
X90695Y124655D01*
X115529Y99821D01*
Y87683D01*
X100247Y72401D01*
X99227Y72267D01*
X98140Y71817D01*
X97207Y71100D01*
X96491Y70167D01*
X96040Y69080D01*
X95887Y67913D01*
X96040Y66747D01*
X96491Y65660D01*
X97207Y64726D01*
X98140Y64010D01*
X99227Y63560D01*
X100394Y63406D01*
X101560Y63560D01*
X102647Y64010D01*
X103581Y64726D01*
X104297Y65660D01*
X104747Y66747D01*
X104901Y67913D01*
X104747Y69080D01*
X104595Y69448D01*
X119935Y84789D01*
X120346Y85324D01*
X120603Y85946D01*
X120691Y86614D01*
Y100890D01*
X120603Y101558D01*
X120346Y102180D01*
X119935Y102715D01*
X95101Y127549D01*
Y142632D01*
X96404Y143935D01*
X98054D01*
X98275Y143486D01*
X98097Y143254D01*
X97646Y142166D01*
X97493Y141000D01*
X97646Y139833D01*
X98097Y138747D01*
X98813Y137813D01*
X99419Y137348D01*
Y128315D01*
X99507Y127647D01*
X99765Y127024D01*
X100175Y126490D01*
X103490Y123175D01*
X104024Y122765D01*
X104647Y122507D01*
X105315Y122419D01*
X139679D01*
X150734Y111364D01*
X151268Y110954D01*
X151891Y110696D01*
X152559Y110608D01*
X168592D01*
X169057Y110002D01*
X169991Y109286D01*
X171078Y108835D01*
X172244Y108682D01*
X173411Y108835D01*
X174498Y109286D01*
X175431Y110002D01*
X176147Y110935D01*
X176598Y112022D01*
X176751Y113189D01*
X176598Y114356D01*
X176147Y115443D01*
X175431Y116376D01*
X174498Y117092D01*
X173411Y117543D01*
X172244Y117696D01*
X171078Y117543D01*
X169991Y117092D01*
X169057Y116376D01*
X168592Y115770D01*
X153628D01*
X142573Y126825D01*
X142039Y127235D01*
X141416Y127493D01*
X140748Y127581D01*
X106384D01*
X104581Y129384D01*
Y137348D01*
X105187Y137813D01*
X105903Y138747D01*
X106353Y139833D01*
X106507Y141000D01*
X106353Y142166D01*
X105903Y143254D01*
X105725Y143486D01*
X105946Y143935D01*
X127815D01*
X128483Y144023D01*
X129105Y144280D01*
X129640Y144691D01*
X132731Y147781D01*
X133141Y148316D01*
X133399Y148938D01*
X133487Y149606D01*
Y152146D01*
X133811Y152512D01*
X142875D01*
X143205Y152136D01*
X143131Y151575D01*
X143284Y150408D01*
X143735Y149321D01*
X144451Y148388D01*
X145384Y147672D01*
X146471Y147221D01*
X147638Y147068D01*
X148395Y147167D01*
X178419Y117143D01*
Y104069D01*
X155671Y81321D01*
X153258D01*
X152793Y81927D01*
X151860Y82643D01*
X150773Y83094D01*
X149606Y83247D01*
X148440Y83094D01*
X147353Y82643D01*
X146419Y81927D01*
X145703Y80994D01*
X145253Y79907D01*
X145099Y78740D01*
X145253Y77574D01*
X145703Y76487D01*
X146419Y75553D01*
X147353Y74837D01*
X148440Y74387D01*
X149606Y74233D01*
X150773Y74387D01*
X151860Y74837D01*
X152793Y75553D01*
X153258Y76159D01*
X155981D01*
X156172Y75697D01*
X150970Y70495D01*
X127668D01*
X127203Y71100D01*
X126269Y71817D01*
X125182Y72267D01*
X124016Y72421D01*
X122849Y72267D01*
X121762Y71817D01*
X120829Y71100D01*
X120113Y70167D01*
X119662Y69080D01*
X119509Y67913D01*
X119662Y66747D01*
X120113Y65660D01*
X120829Y64726D01*
X121762Y64010D01*
X122849Y63560D01*
X124016Y63406D01*
X125182Y63560D01*
X126269Y64010D01*
X127203Y64726D01*
X127668Y65332D01*
X152039D01*
X152707Y65420D01*
X153330Y65678D01*
X153864Y66088D01*
X187825Y100049D01*
X188235Y100584D01*
X188493Y101206D01*
X188581Y101874D01*
Y119000D01*
X188493Y119668D01*
X188235Y120291D01*
X187825Y120825D01*
X170888Y137762D01*
Y157172D01*
X171735Y158019D01*
X172197Y157827D01*
Y152512D01*
X182134D01*
Y154899D01*
X186024D01*
X186692Y154987D01*
X187314Y155245D01*
X187849Y155655D01*
X191786Y159592D01*
X192196Y160127D01*
X192454Y160749D01*
X192542Y161417D01*
Y180033D01*
X199888Y187380D01*
X212598D01*
X213266Y187468D01*
X213889Y187725D01*
X214424Y188136D01*
X217888Y191600D01*
X218298Y192135D01*
X218556Y192757D01*
X218644Y193425D01*
Y194596D01*
X219573Y195309D01*
X220362Y196337D01*
X220806Y197411D01*
X220807Y197411D01*
X221319D01*
X221320Y197411D01*
X221764Y196337D01*
X222553Y195309D01*
X223581Y194520D01*
X224778Y194024D01*
X226063Y193855D01*
X227348Y194024D01*
X228545Y194520D01*
X229573Y195309D01*
X230362Y196337D01*
X230806Y197411D01*
X230807Y197411D01*
X231319D01*
X231320Y197411D01*
X231764Y196337D01*
X232553Y195309D01*
X233581Y194520D01*
X234778Y194024D01*
X236063Y193855D01*
X237348Y194024D01*
X238545Y194520D01*
X239573Y195309D01*
X240362Y196337D01*
X240806Y197411D01*
X240807Y197411D01*
X241319D01*
X241320Y197411D01*
X241764Y196337D01*
X242553Y195309D01*
X243581Y194520D01*
X244778Y194024D01*
X246063Y193855D01*
X247348Y194024D01*
X248545Y194520D01*
X249573Y195309D01*
X250362Y196337D01*
X250858Y197534D01*
X251027Y198819D01*
X250858Y200104D01*
X250362Y201301D01*
X249573Y202329D01*
X248545Y203118D01*
X247348Y203613D01*
X246063Y203783D01*
D02*
G37*
G36*
X92035Y161929D02*
Y158965D01*
X95000D01*
X94945Y159378D01*
X94593Y160230D01*
X94032Y160961D01*
X93300Y161522D01*
X92449Y161874D01*
X92035Y161929D01*
D02*
G37*
G36*
X91035D02*
X90622Y161874D01*
X89770Y161522D01*
X89039Y160961D01*
X88478Y160230D01*
X88125Y159378D01*
X88071Y158965D01*
X91035D01*
Y161929D01*
D02*
G37*
G36*
X95000Y157965D02*
X92035D01*
Y155000D01*
X92449Y155055D01*
X93300Y155407D01*
X94032Y155968D01*
X94593Y156700D01*
X94945Y157551D01*
X95000Y157965D01*
D02*
G37*
G36*
X91035D02*
X88071D01*
X88125Y157551D01*
X88478Y156700D01*
X89039Y155968D01*
X89770Y155407D01*
X90622Y155055D01*
X91035Y155000D01*
Y157965D01*
D02*
G37*
G36*
X40500Y145464D02*
Y142500D01*
X43464D01*
X43410Y142914D01*
X43057Y143765D01*
X42496Y144496D01*
X41765Y145057D01*
X40914Y145410D01*
X40500Y145464D01*
D02*
G37*
G36*
X39500D02*
X39086Y145410D01*
X38235Y145057D01*
X37504Y144496D01*
X36943Y143765D01*
X36590Y142914D01*
X36536Y142500D01*
X39500D01*
Y145464D01*
D02*
G37*
G36*
X43464Y141500D02*
X40500D01*
Y138536D01*
X40914Y138590D01*
X41765Y138943D01*
X42496Y139504D01*
X43057Y140235D01*
X43410Y141086D01*
X43464Y141500D01*
D02*
G37*
G36*
X39500D02*
X36536D01*
X36590Y141086D01*
X36943Y140235D01*
X37504Y139504D01*
X38235Y138943D01*
X39086Y138590D01*
X39500Y138536D01*
Y141500D01*
D02*
G37*
G36*
X77756Y142751D02*
X76728Y142615D01*
X75770Y142218D01*
X74948Y141587D01*
X66269Y132908D01*
X45276D01*
X44248Y132773D01*
X43290Y132376D01*
X42468Y131745D01*
X37645Y126922D01*
X43261Y121306D01*
X46920Y124966D01*
X67913D01*
X68941Y125101D01*
X69899Y125498D01*
X70721Y126129D01*
X80564Y135972D01*
X81195Y136794D01*
X81592Y137752D01*
X81727Y138779D01*
X81592Y139807D01*
X81195Y140765D01*
X80564Y141587D01*
X79741Y142218D01*
X78784Y142615D01*
X77756Y142751D01*
D02*
G37*
G36*
X67429Y105827D02*
Y102862D01*
X70394D01*
X70339Y103276D01*
X69986Y104127D01*
X69425Y104858D01*
X68694Y105419D01*
X67843Y105772D01*
X67429Y105827D01*
D02*
G37*
G36*
X66429D02*
X66015Y105772D01*
X65164Y105419D01*
X64433Y104858D01*
X63872Y104127D01*
X63519Y103276D01*
X63465Y102862D01*
X66429D01*
Y105827D01*
D02*
G37*
G36*
X70394Y101862D02*
X67429D01*
Y98898D01*
X67843Y98952D01*
X68694Y99305D01*
X69425Y99866D01*
X69986Y100597D01*
X70339Y101449D01*
X70394Y101862D01*
D02*
G37*
G36*
X66429D02*
X63465D01*
X63519Y101449D01*
X63872Y100597D01*
X64433Y99866D01*
X65164Y99305D01*
X66015Y98952D01*
X66429Y98898D01*
Y101862D01*
D02*
G37*
G36*
X44791Y99921D02*
Y96957D01*
X47756D01*
X47701Y97370D01*
X47349Y98222D01*
X46788Y98953D01*
X46056Y99514D01*
X45205Y99867D01*
X44791Y99921D01*
D02*
G37*
G36*
X43791D02*
X43378Y99867D01*
X42526Y99514D01*
X41795Y98953D01*
X41234Y98222D01*
X40881Y97370D01*
X40827Y96957D01*
X43791D01*
Y99921D01*
D02*
G37*
G36*
X47756Y95957D02*
X44791D01*
Y92992D01*
X45205Y93047D01*
X46056Y93400D01*
X46788Y93960D01*
X47349Y94692D01*
X47701Y95543D01*
X47756Y95957D01*
D02*
G37*
G36*
X67675Y91063D02*
Y88098D01*
X70640D01*
X70585Y88512D01*
X70232Y89363D01*
X69671Y90095D01*
X68940Y90656D01*
X68089Y91008D01*
X67675Y91063D01*
D02*
G37*
G36*
X66675D02*
X66262Y91008D01*
X65410Y90656D01*
X64679Y90095D01*
X64118Y89363D01*
X63765Y88512D01*
X63711Y88098D01*
X66675D01*
Y91063D01*
D02*
G37*
G36*
X216500Y68464D02*
Y65500D01*
X219464D01*
X219410Y65914D01*
X219057Y66765D01*
X218496Y67496D01*
X217765Y68057D01*
X216914Y68410D01*
X216500Y68464D01*
D02*
G37*
G36*
X215500D02*
X215086Y68410D01*
X214235Y68057D01*
X213504Y67496D01*
X212943Y66765D01*
X212590Y65914D01*
X212536Y65500D01*
X215500D01*
Y68464D01*
D02*
G37*
G36*
X219464Y64500D02*
X216500D01*
Y61536D01*
X216914Y61590D01*
X217765Y61943D01*
X218496Y62504D01*
X219057Y63235D01*
X219410Y64086D01*
X219464Y64500D01*
D02*
G37*
G36*
X215500D02*
X212536D01*
X212590Y64086D01*
X212943Y63235D01*
X213504Y62504D01*
X214235Y61943D01*
X215086Y61590D01*
X215500Y61536D01*
Y64500D01*
D02*
G37*
G36*
X50938Y63930D02*
X45322Y58314D01*
X61218Y42419D01*
X66834Y48034D01*
X50938Y63930D01*
D02*
G37*
G36*
X69442Y45426D02*
X63826Y39810D01*
X76738Y26899D01*
Y15748D01*
X76873Y14720D01*
X77270Y13762D01*
X77901Y12940D01*
X78723Y12309D01*
X79681Y11912D01*
X80709Y11777D01*
X81736Y11912D01*
X82694Y12309D01*
X83517Y12940D01*
X84148Y13762D01*
X84544Y14720D01*
X84680Y15748D01*
Y28543D01*
X84544Y29571D01*
X84148Y30529D01*
X83517Y31351D01*
X69442Y45426D01*
D02*
G37*
G36*
X61024Y25638D02*
X59094Y25448D01*
X57239Y24885D01*
X55529Y23971D01*
X54030Y22741D01*
X52800Y21243D01*
X51886Y19533D01*
X51323Y17677D01*
X51134Y15748D01*
X51323Y13819D01*
X51886Y11963D01*
X52800Y10253D01*
X54030Y8755D01*
X55529Y7525D01*
X57239Y6611D01*
X59094Y6048D01*
X61024Y5858D01*
X62953Y6048D01*
X64808Y6611D01*
X66518Y7525D01*
X68017Y8755D01*
X69247Y10253D01*
X70161Y11963D01*
X70724Y13819D01*
X70914Y15748D01*
X70724Y17677D01*
X70161Y19533D01*
X69247Y21243D01*
X68017Y22741D01*
X66518Y23971D01*
X64808Y24885D01*
X62953Y25448D01*
X61024Y25638D01*
D02*
G37*
%LPD*%
D10*
X178150Y142717D02*
Y145669D01*
X188976Y126969D02*
Y131890D01*
X178150Y142717D02*
X188976Y131890D01*
X196850Y119095D02*
X211614D01*
X188976Y126969D02*
X196850Y119095D01*
D47*
X145984Y10000D02*
X153602Y17618D01*
X187598D01*
X145984Y10000D02*
Y20016D01*
X131000Y31000D02*
X139000Y23000D01*
X143000D01*
X145984Y20016D01*
X131000Y38874D02*
X137185D01*
X146000Y30059D01*
X170276Y113189D02*
X171260Y112205D01*
X194323Y98000D02*
X205709Y86614D01*
X174850Y163039D02*
X177165Y165354D01*
X186000Y101874D02*
Y119000D01*
X152039Y67913D02*
X186000Y101874D01*
X124016Y67913D02*
X152039D01*
X155165Y163039D02*
X157480Y165354D01*
X181000Y103000D02*
Y118213D01*
X156740Y78740D02*
X181000Y103000D01*
X149606Y78740D02*
X156740D01*
X168307Y136693D02*
X186000Y119000D01*
X168307Y136693D02*
Y158241D01*
X147638Y151575D02*
X181000Y118213D01*
X118110Y86614D02*
Y100890D01*
X92520Y126480D02*
X118110Y100890D01*
X92520Y126480D02*
Y143701D01*
X94945Y59055D02*
X188976D01*
X72307Y81693D02*
X94945Y59055D01*
X48228Y81693D02*
X72307D01*
X187992Y39370D02*
X188976Y40354D01*
X96354Y52646D02*
X141251Y52646D01*
X71244Y77756D02*
X96354Y52646D01*
X44291Y77756D02*
X71244D01*
X138681Y165256D02*
X138779Y165354D01*
X136465Y163039D02*
X138681Y165256D01*
X95335Y146516D02*
X127815D01*
X102000Y128315D02*
X105315Y125000D01*
X102000Y128315D02*
Y141000D01*
X147638Y157257D02*
X153420Y163039D01*
X147638Y151575D02*
Y157257D01*
X104331Y166339D02*
X110236D01*
X104331Y151575D02*
X117126D01*
X100394Y155512D02*
X104331Y151575D01*
X244094Y26575D02*
X246063Y24606D01*
X244094Y26575D02*
Y47244D01*
X246063Y10000D02*
Y24606D01*
X205709Y86614D02*
X227362D01*
X230985Y90237D01*
X100394Y68898D02*
X118110Y86614D01*
X92520Y143701D02*
X95335Y146516D01*
X119409Y26575D02*
X135984Y10000D01*
X111603Y26575D02*
X119409D01*
X78105Y60073D02*
X111603Y26575D01*
X154527Y39370D02*
X187992D01*
X141251Y52646D02*
X154527Y39370D01*
X37402Y92520D02*
X48228Y81693D01*
X76772Y60073D02*
X78105D01*
X191706Y47244D02*
X194535Y44414D01*
X188976Y47244D02*
X191706D01*
X188976D02*
Y48228D01*
X52165Y166339D02*
Y168307D01*
Y166339D02*
X52165Y166339D01*
X52165Y181102D02*
X54134D01*
X57087Y184055D01*
X52165Y166339D02*
X57087Y171260D01*
X61024D01*
X57087Y184055D02*
X61023D01*
X81063Y178504D02*
Y198819D01*
X73819Y171260D02*
X81063Y178504D01*
X69882Y171260D02*
X73819D01*
X71063Y191142D02*
Y198819D01*
X68898Y188977D02*
X71063Y191142D01*
X68898Y184055D02*
Y188977D01*
X171260Y112205D02*
X172244Y113189D01*
X152559D02*
X170276D01*
X140748Y125000D02*
X152559Y113189D01*
X105315Y125000D02*
X140748D01*
X127815Y146516D02*
X130905Y149606D01*
X111221Y157480D02*
X121063D01*
X131063Y167480D01*
X100394Y155512D02*
Y162402D01*
X130905Y159225D02*
X134720Y163039D01*
X130905Y149606D02*
Y159225D01*
X110236Y158465D02*
X111221Y157480D01*
X126969Y171260D02*
Y188976D01*
X122047Y166339D02*
X126969Y171260D01*
X118110Y166339D02*
X122047D01*
X235236Y66929D02*
X239173Y62992D01*
X244094D01*
X230985Y90237D02*
X240828D01*
X220472Y96457D02*
X221457Y97441D01*
X236221D01*
X240828Y90237D02*
X244094Y93504D01*
Y105315D01*
X116142Y186024D02*
X120079D01*
X122667Y193278D02*
X126969Y188976D01*
X131063Y167480D02*
Y198819D01*
X138779Y179134D02*
X141063Y181417D01*
X138779Y173228D02*
Y179134D01*
X141063Y181417D02*
Y198819D01*
X151063Y180591D02*
Y198819D01*
X144685Y174213D02*
X151063Y180591D01*
X144685Y159449D02*
Y174213D01*
X114793Y193278D02*
X122667D01*
X110236Y180118D02*
X116142Y186024D01*
X111063Y197008D02*
X114793Y193278D01*
X110236Y174213D02*
Y180118D01*
X111063Y197008D02*
Y198819D01*
X228346Y68898D02*
Y80709D01*
X222441Y62992D02*
X228346Y68898D01*
X222441Y34449D02*
Y62992D01*
X244568Y87088D02*
X253937Y96457D01*
X237678Y87088D02*
X244568D01*
X236221Y85630D02*
X237678Y87088D01*
X236221Y80709D02*
Y85630D01*
X253937Y96457D02*
Y113189D01*
X236221Y111662D02*
X241142Y116583D01*
X236221Y105315D02*
Y111662D01*
X235236Y44291D02*
X236221Y45276D01*
Y55118D01*
X248228Y128937D02*
X258012Y119154D01*
Y68961D02*
Y119154D01*
X244169Y55118D02*
X258012Y68961D01*
X244094Y55118D02*
X244169D01*
X248228Y128937D02*
Y152283D01*
X237519Y162992D02*
X248228Y152283D01*
X235236Y162992D02*
X237519D01*
X235236D02*
Y167480D01*
Y157480D02*
X245079Y147638D01*
Y122047D02*
Y147638D01*
Y122047D02*
X253937Y113189D01*
X238347Y147480D02*
X241142Y144685D01*
Y116583D02*
Y144685D01*
X236063Y10000D02*
Y20827D01*
X222441Y34449D02*
X236063Y20827D01*
X218504Y106299D02*
X219488Y105315D01*
X228346D01*
X251968Y80709D02*
X252953Y81693D01*
X244094Y80709D02*
X251968D01*
X211614Y119095D02*
X216535D01*
X224921Y127480D01*
X235236D01*
X100394Y67913D02*
Y68898D01*
X37402Y84646D02*
X44291Y77756D01*
X188976Y59055D02*
X197835Y50197D01*
Y41732D02*
Y50197D01*
Y41732D02*
X200197Y39370D01*
X207677D01*
X153420Y163039D02*
X155165D01*
X165354Y188110D02*
X176063Y198819D01*
X165354Y162402D02*
Y188110D01*
X160433Y157480D02*
X165354Y162402D01*
X157480Y173228D02*
Y187992D01*
X161063Y191575D01*
X168307Y158241D02*
X173105Y163039D01*
X174850D01*
X134720Y163039D02*
X136465D01*
X100394Y162402D02*
X104331Y166339D01*
X220472Y178150D02*
X221457Y179134D01*
X235236Y147480D02*
X238347D01*
X229331Y157480D02*
X235236D01*
X244094Y55118D02*
Y57433D01*
X212598Y130905D02*
X219488D01*
X212598Y151575D02*
X219488D01*
X213583Y171260D02*
X219488D01*
X219488Y171260D01*
X225394Y179134D02*
X235236Y169291D01*
X221457Y179134D02*
X225394D01*
X231142Y147480D02*
X235236D01*
X221457Y137795D02*
X231142Y147480D01*
X220472Y137795D02*
X221457D01*
X227362Y159449D02*
X229331Y157480D01*
X220472Y159449D02*
X227362D01*
X235236Y167480D02*
Y169291D01*
X138779Y157480D02*
X142717D01*
X144685Y159449D01*
X161063Y191575D02*
Y198819D01*
X157480Y157480D02*
X160433D01*
X177165Y173228D02*
Y176181D01*
X196063Y195079D01*
Y198819D01*
X216063Y193425D02*
Y198819D01*
X212598Y189961D02*
X216063Y193425D01*
X198819Y189961D02*
X212598D01*
X189961Y181102D02*
X198819Y189961D01*
X189961Y161417D02*
Y181102D01*
X186024Y157480D02*
X189961Y161417D01*
X177165Y157480D02*
X186024D01*
X226063Y10000D02*
Y23937D01*
X218504Y31496D02*
X226063Y23937D01*
X218504Y31496D02*
Y44291D01*
X215551Y47244D02*
X218504Y44291D01*
X207677Y47244D02*
X215551D01*
X216063Y10000D02*
Y23110D01*
X207677Y31496D02*
X216063Y23110D01*
X207677Y31496D02*
Y31496D01*
X206063Y10000D02*
Y19331D01*
X194535Y30858D02*
X206063Y19331D01*
X194535Y30858D02*
Y44414D01*
X196063Y10000D02*
Y20472D01*
X188976Y27559D02*
X196063Y20472D01*
X188976Y27559D02*
Y32480D01*
D48*
X80709Y15748D02*
Y28543D01*
X30512Y78740D02*
X80709Y28543D01*
X30512Y78740D02*
Y114173D01*
X45276Y128937D01*
X67913D01*
X77756Y138779D01*
D52*
X80709Y15748D02*
D03*
X61024D02*
D03*
X17717Y111221D02*
D03*
Y91535D02*
D03*
Y71850D02*
D03*
D53*
X235236Y127480D02*
D03*
Y137480D02*
D03*
Y147480D02*
D03*
Y157480D02*
D03*
X115984Y10000D02*
D03*
X125984D02*
D03*
X135984D02*
D03*
X145984D02*
D03*
X155984D02*
D03*
X165984D02*
D03*
X175984D02*
D03*
X206063D02*
D03*
X216063D02*
D03*
X226063D02*
D03*
X236063D02*
D03*
X246063D02*
D03*
X91063Y198819D02*
D03*
X161063D02*
D03*
X151063D02*
D03*
X141063D02*
D03*
X131063D02*
D03*
X121063D02*
D03*
X111063D02*
D03*
X101063D02*
D03*
X81063D02*
D03*
X186063D02*
D03*
X196063D02*
D03*
X206063D02*
D03*
X216063D02*
D03*
X226063D02*
D03*
X236063D02*
D03*
X246063D02*
D03*
D54*
X235236Y167480D02*
D03*
D55*
X105984Y10000D02*
D03*
X196063D02*
D03*
X71063Y198819D02*
D03*
X176063D02*
D03*
D56*
X257874Y137795D02*
D03*
Y27559D02*
D03*
X59055Y198819D02*
D03*
D57*
X187598Y17618D02*
D03*
X40000Y142000D02*
D03*
X146000Y30059D02*
D03*
X194323Y98000D02*
D03*
X102000Y141000D02*
D03*
X66929Y102362D02*
D03*
X44291Y96457D02*
D03*
X149606Y78740D02*
D03*
X216000Y65000D02*
D03*
X91535Y158465D02*
D03*
X77756Y138779D02*
D03*
X37402Y92520D02*
D03*
X177165Y145669D02*
D03*
X67175Y87598D02*
D03*
X76772Y60073D02*
D03*
X52165Y168307D02*
D03*
Y181102D02*
D03*
X172244Y113189D02*
D03*
X117126Y151575D02*
D03*
X235236Y66929D02*
D03*
X220472Y96457D02*
D03*
X120079Y186024D02*
D03*
X235236Y44291D02*
D03*
X218504Y106299D02*
D03*
X252953Y81693D02*
D03*
X211614Y119095D02*
D03*
X124016Y67913D02*
D03*
X100394D02*
D03*
X37402Y84646D02*
D03*
X147638Y151575D02*
D03*
X211614Y130905D02*
D03*
Y151575D02*
D03*
Y171260D02*
D03*
D58*
X207677Y47244D02*
D03*
X207776Y39469D02*
D03*
X207677Y31496D02*
D03*
X188976Y47244D02*
D03*
X189075Y39468D02*
D03*
X188976Y31496D02*
D03*
X157480Y157480D02*
D03*
X157382Y165256D02*
D03*
X157480Y173228D02*
D03*
X138779Y157480D02*
D03*
X138681Y165256D02*
D03*
X138779Y173228D02*
D03*
X177165Y157480D02*
D03*
X177067Y165256D02*
D03*
X177165Y173228D02*
D03*
X110236Y173228D02*
D03*
Y165354D02*
D03*
Y157480D02*
D03*
X118110Y165354D02*
D03*
X244094Y47244D02*
D03*
Y55118D02*
D03*
Y62992D02*
D03*
X236221Y55118D02*
D03*
X131000Y31000D02*
D03*
Y38874D02*
D03*
X219488Y130905D02*
D03*
Y138779D02*
D03*
X219488Y151575D02*
D03*
Y159449D02*
D03*
X219488Y171260D02*
D03*
Y179134D02*
D03*
D59*
X228346Y80709D02*
D03*
X236122Y80807D02*
D03*
X244094Y80709D02*
D03*
X244094Y105315D02*
D03*
X236221D02*
D03*
X228346D02*
D03*
X236221Y97441D02*
D03*
X61024Y184055D02*
D03*
X68898D02*
D03*
X61024Y171260D02*
D03*
X68898D02*
D03*
M02*
